<?xml version="1.0" standalone="no"?>
<!DOCTYPE svg PUBLIC "-//W3C//DTD SVG 1.1//EN" "http://www.w3.org/Graphics/SVG/1.1/DTD/svg11.dtd" >
<!--
2013-9-30: Created.
-->
<svg>
<metadata>
Created by iconfont
</metadata>
<defs>

<font id="iconfont" horiz-adv-x="1024" >
  <font-face
    font-family="iconfont"
    font-weight="500"
    font-stretch="normal"
    units-per-em="1024"
    ascent="896"
    descent="-128"
  />
    <missing-glyph />
    
    <glyph glyph-name="shangshi" unicode="&#58897;" d="M237.609-88.949c0-23.156-18.357-42.103-40.793-42.103h-61.187c-22.435 0-40.793 18.947-40.793 42.103v242c0 23.158 20.885 42.758 35.004 51.953 14.119 9.197 59.687 28.257 83.433 33.455 23.744 5.201 24.336-41.25 24.336-64.407v-263.002zM445.413-96.372c0-23.159-18.358-42.107-40.795-42.107h-61.187c-22.436 0-40.793 18.947-40.793 42.107v363.846c0 23.158 31.861 40.416 31.861 40.416s37.295 21.55 59.731 21.55c22.436 0 50.732-24.882 51.181-46.665v-379.146zM652.103-96.372c0-23.159-18.357-42.107-40.796-42.107h-61.185c-22.438 0-40.796 18.947-40.796 42.107v360.901c0 35.573 58.921 67.26 58.921 67.26s50.358 31.195 65.238 30.699c14.868-0.495 18.62-16.14 18.62-39.297v-419.563zM859.326-96.372c0-23.159-18.357-42.107-40.794-42.107h-61.186c-22.438 0-40.795 18.947-40.795 42.107v491.182c0 23.158 35.349 40.521 35.349 40.521s29.085 19.867 54.985 23.333c26.626-1.609 52.442-44.686 52.442-55.084v-499.952zM970.186 706.839l-197.12-20.654c-19.27-2.019-27.009-17.341-17.197-34.047l22.078-37.591c-89.578-51.773-240.608-137.589-257.734-137.732-24.524-0.203-78.386 31.863-78.386 31.863-1.437 0.671-2.901 1.236-4.373 1.722-11.282 6.069-25.138 6.675-37.297 0.339l-358.933-187.886c-20.029-10.442-28.138-35.894-18.022-56.563 10.114-20.672 34.775-29.042 54.801-18.603l341.713 178.909 77.056-35.868c1.063-0.494 2.135-0.924 3.209-1.315 12.057-7.724 27.699-8.793 41.009-1.362l278.608 155.577 19.683-33.516c9.813-16.708 26.402-17.036 36.866-0.729l110.048 171.479c10.464 16.308 3.26 27.997-16.010 25.979z"  horiz-adv-x="1024" />

    
    <glyph glyph-name="tianjia1" unicode="&#58942;" d="M64 392.384l896 0 0-16.768L64 375.616 64 392.384 64 392.384zM503.616 832l16.768 0 0-896L503.616-64 503.616 832 503.616 832zM503.616 832"  horiz-adv-x="1024" />

    
    <glyph glyph-name="ruchangshunxu" unicode="&#58899;" d="M664.753114 135.073659C659.208523 135.073659 653.769894 135.800574 648.533333 137.175513L648.533333-72.837941C652.219872-74.125537 655.916266-75.466667 659.977373-75.466667 681.933959-75.466667 699.733333-55.129969 699.733333-30.023248L699.733333 146.4C695.613085 143.734647 691.608656 140.874887 686.998019 139.156214 679.797443 136.448599 672.308547 135.073659 664.753114 135.073659ZM879.948491 539.288482C870.118806 569.694087 842.166914 590.133333 810.370751 590.133333L696.666892 590.133333C675.943748 590.133333 657.440652 580.837789 643.932657 566.367404 641.402457 562.933939 638.670932 559.662017 635.822418 556.485926 634.10297 553.821841 632.859636 550.818244 631.466667 547.907739 662.988044 536.87082 688.450548 511.71398 699.227017 478.367753L772.855796 250.565296C776.191305 240.267639 777.39383 229.624994 776.468811 219.121987 775.777766 210.962715 773.810741 203.164861 770.856122 195.837947L770.856122-14.22768C770.856122-38.626089 790.496449-58.4 814.748266-58.4 838.978319-58.4 858.629528-38.626089 858.629528-14.22768L858.629528 323.059594 871.1064 284.448174C877.067329 266.010412 894.071352 254.278038 912.340475 254.278038 916.772403 254.278038 921.299553 254.984445 925.76413 256.44928 942.852492 262.043035 954.12956 277.293752 955.563339 294.225608 956.0721 299.893289 955.446352 305.733466 953.585432 311.444954L879.948491 539.288482ZM712.188609 629.676163C721.72567 626.419234 731.762714 624.266667 742.393315 624.266667 753.026592 624.266667 763.07433 626.419234 772.608717 629.676163 809.537761 642.294757 836.266667 676.909653 836.266667 718.126648 836.266667 769.967435 794.238891 812 742.393315 812 690.558435 812 648.533333 769.967435 648.533333 718.126648 648.533333 676.909653 675.27026 642.294757 712.188609 629.676163ZM641.022633 471.007481C631.181769 501.427161 603.231756 521.866667 571.442801 521.866667L457.73552 521.866667C437.011753 521.866667 418.5081 512.571005 404.999697 498.100436 402.461261 494.666928 399.740535 491.394964 396.891935 488.216095 395.158833 485.554714 393.915462 482.559293 392.533333 479.640537 424.05566 468.611692 449.510767 443.44632 460.298443 410.096932L533.915834 182.30528C537.254163 171.993803 538.464886 161.35376 537.53984 150.861571 536.848775 142.69946 534.884412 134.890556 531.918821 127.577238L531.918821-82.50474C531.918821-106.900721 551.567901-126.666667 575.812285-126.666667 600.053949-126.666667 619.703028-106.900721 619.703028-82.50474L619.703028 254.789545 632.180275 216.177635C638.133222 197.739639 655.14864 186.015331 673.407428 186.015331 677.850373 186.015331 682.377661 186.710796 686.828768 188.175648 703.928528 193.769475 715.195052 209.023124 716.628874 225.952456 717.140371 231.622946 716.511882 237.46046 714.653628 243.172021L641.022633 471.007481ZM459.962191 66.820506C454.408008 66.820506 448.979497 67.547457 443.733333 68.922465L443.733333-141.101657C447.42955-142.389318 451.115911-143.733333 455.179286-143.733333 477.134816-143.733333 494.933333-123.392785 494.933333-98.287606L494.933333 78.133333C490.823141 75.481933 486.818905 72.60794 482.20849 70.903267 474.998402 68.195514 467.519724 66.820506 459.962191 66.820506ZM473.25795 561.412171C482.781643 558.152567 492.82938 556 503.462656 556 514.093259 556 524.140996 558.152567 533.667362 561.412171 570.596407 574.030764 597.333333 608.645661 597.333333 649.862656 597.333333 701.703443 555.305557 743.733333 503.462656 743.733333 451.627776 743.733333 409.6 701.703443 409.6 649.862656 409.6 608.645661 436.326233 574.030764 473.25795 561.412171ZM401.126047 385.67753C391.159345 416.083135 362.849176 436.533333 330.656483 436.533333L215.484187 436.533333C183.28874 436.533333 154.981326 416.083135 145.014625 385.67753L70.442099 157.844954C68.557326 152.133466 67.923558 146.293289 68.438839 140.625608 69.893752 123.682801 81.301587 108.443035 98.62276 102.84928 103.130784 101.384445 107.715962 100.678038 112.21572 100.678038 130.707987 100.678038 147.929961 112.410412 153.970051 130.848174L166.606847 169.459594 166.606847-167.82768C166.606847-192.226089 186.507183-212 211.058829-212 235.610475-212 255.502544-192.226089 255.502544-167.82768L255.502544 96.089132 290.62435 96.089132 290.62435-167.838631C290.62435-192.237042 310.52744-212 335.079086-212 359.630732-212 379.522802-192.237042 379.522802-167.838631L379.522802 169.459594 392.159597 130.848174C398.196932 112.410412 415.418907 100.678038 433.922195 100.678038 438.421953 100.678038 442.99611 101.384445 447.517911 102.84928 464.825306 108.443035 476.246919 123.682801 477.699075 140.625608 478.20609 146.293289 477.569567 152.133466 475.695816 157.844954L401.126047 385.67753ZM234.321943 476.076163C243.84831 472.819234 253.896047 470.666667 264.526648 470.666667 275.159926 470.666667 285.207663 472.819234 294.731356 476.076163 331.663073 488.694757 358.4 523.309653 358.4 564.515953 358.4 616.367435 316.36153 658.4 264.526648 658.4 212.694442 658.4 170.666667 616.367435 170.666667 564.515953 170.666667 523.309653 197.392899 488.694757 234.321943 476.076163Z"  horiz-adv-x="1024" />

    
    <glyph glyph-name="lock" unicode="&#59017;" d="M512.499756 811.500244M832.343582 363.718887l0 127.937531c0 176.644748-143.199079 319.843826-319.843826 319.843826s-319.843826-143.199079-319.843826-319.843826l0-127.937531-63.968765 0 0-575.718887 767.625183 0 0 575.718887L832.343582 363.718887zM544.484139 80.872996 544.484139-53.737277l-63.968765 0L480.515373 80.872996c-28.236213 12.340974-47.976574 40.502224-47.976574 73.288215 0 44.161437 35.79952 79.960957 79.960957 79.960957s79.960957-35.79952 79.960957-79.960957C592.460713 121.375219 572.720351 93.21397 544.484139 80.872996zM320.59346 363.718887l-31.984383 0 0 127.937531c0 59.803799 23.288629 116.027346 65.57598 158.314698C396.47241 692.258468 452.696957 715.547096 512.499756 715.547096c59.803799 0 116.027346-23.288629 158.314698-65.57598C713.101806 607.683764 736.390434 551.460217 736.390434 491.656418l0-127.937531-31.984383 0L320.59346 363.718887z"  horiz-adv-x="1024" />

    
    <glyph glyph-name="lefta" unicode="&#59094;" d="M780.007475 830.77651 243.903497 830.77651c-98.642624 0-178.61298-80.101339-178.61298-178.744987l0-536.105001c0-98.730629 79.969333-178.700985 178.61298-178.700985l536.105001 0c98.728582 0 178.700985 79.969333 178.700985 178.700985L958.709483 652.031523C958.70846 750.67517 878.73708 830.77651 780.007475 830.77651zM869.44546 160.602024c0-73.994248-60.119239-134.069485-134.113487-134.069485L288.667004 26.532539c-74.082252 0-134.071532 60.075237-134.071532 134.069485L154.595472 607.400023c0 73.994248 59.989279 133.939525 134.071532 133.939525l446.664969 0c73.994248 0 134.113487-59.945277 134.113487-133.939525L869.44546 160.602024zM333.254501 383.979534l62.561871 67.056232 250.602571-268.13897-62.60792-67.056232L333.254501 383.979534zM458.553229 383.979534l-62.73788 67.056232 187.994652 200.995757 62.60792-67.01223L458.553229 383.979534z"  horiz-adv-x="1024" />

    
    <glyph glyph-name="righta" unicode="&#59095;" d="M628.050598 451.035766l-62.622246-67.039859L377.580033 585.019293l62.605873 67.01223L628.050598 451.035766zM958.70846 652.031523l0-536.105001c0-98.730629-79.971379-178.700985-178.700985-178.700985L243.903497-62.774463c-98.642624 0-178.61298 79.969333-178.61298 178.700985L65.290517 652.031523c0 98.642624 79.969333 178.744987 178.61298 178.744987l536.105001 0C878.73708 830.77651 958.70846 750.67517 958.70846 652.031523zM869.401458 607.400023c0 73.994248-60.075237 133.939525-134.069485 133.939525L288.578999 741.339548c-74.03825 0-134.027529-59.945277-134.027529-133.939525l0-446.797999c0-73.994248 59.989279-134.069485 134.027529-134.069485l446.752973 0c73.994248 0 134.069485 60.075237 134.069485 134.069485L869.401458 607.400023zM565.442678 383.979534l-0.01535 0.016373L377.580033 182.896796l62.605873-67.056232 250.470565 268.13897-62.605873 67.056232L565.442678 383.979534z"  horiz-adv-x="1024" />

    
    <glyph glyph-name="080jiating" unicode="&#58966;" d="M955.824783 440.916291C691.517071 596.408691 584.747349 746.367051 548.102754 782.438595c-36.69883 36.071543-68.490907 0-68.490907 0C266.94426 486.612029 75.706751 440.916291 75.706751 440.916291c-46.460148-45.695738 77.54205-52.40351 77.54205-52.40351 49.349965-159.364591 44.660152-418.98249 44.660152-418.98249l625.898073 0c30.700209 355.809705 59.329247 421.87333 59.329247 421.87333C980.908064 391.402597 955.824783 440.916291 955.824783 440.916291L955.824783 440.916291zM736.668411 70.438515 291.701107 70.438515c-10.796904 263.489066-38.880519 346.374822-38.880519 346.374822 125.255749 57.338916 259.673158 235.843426 259.673158 235.843426 96.845699-109.35971 275.977495-225.235834 275.977495-225.235834C751.937163 304.645674 736.668411 70.438515 736.668411 70.438515L736.668411 70.438515z"  horiz-adv-x="1024" />

    
    <glyph glyph-name="3" unicode="&#58992;" d="M861.867 349.867l-179.2-179.2-179.2 179.2-59.733-59.733 179.2-179.2-179.2-179.2 59.733-59.733 179.2 179.2 179.2-179.2 59.733 59.733-179.2 179.2 179.2 179.2-59.733 59.733zM785.067 896h-546.133c-75.366 0-136.533-61.167-136.533-136.533v-750.933c0-75.366 61.167-136.533 136.533-136.533h68.267v68.267l-68.267-0c-37.683 0-68.267 30.515-68.267 68.267l0 750.933c0 37.751 30.583 68.267 68.267 68.267h546.133c37.751 0 68.267-30.515 68.267-68.267v-273.067h68.267l-0 273.067c0 75.366-61.167 136.533-136.533 136.533z"  horiz-adv-x="1024" />

    
    <glyph glyph-name="daochu" unicode="&#59061;" d="M575.21 251.259v316.049h164.346l-227.556 328.691-227.556-328.691h164.346v-316.049h126.42zM1017.679-128h-1011.358v379.259h63.21v-316.049h884.938v316.049h63.21l-0-379.259z"  horiz-adv-x="1024" />

    
    <glyph glyph-name="daoru" unicode="&#59062;" d="M448 896v-320h-166.4l230.4-332.8 230.4 332.8h-166.4v320h-128zM1024-128h-1024v384h64v-320h896v320h64v-384z"  horiz-adv-x="1024" />

    
    <glyph glyph-name="jiaoyu" unicode="&#58909;" d="M511.674077 622.59919c0 0-198.821231 92.63991-442.833711 79.085196l47.448662-648.437415c0 0 180.745551 18.067494 395.385049-110.709451 0 0 189.793624 124.263142 379.572922 110.709451l63.259766 648.437415C954.506764 701.684386 776.011464 715.2391 511.674077 622.59919zM480.036519 21.60839c-149.109016 81.341586-316.307016 79.085196-316.307016 79.085196l-31.630395 553.542138C303.811936 663.276634 480.036519 559.339424 480.036519 559.339424L480.036519 21.60839zM859.609441 100.693586c-149.116179 15.811104-316.313156-79.085196-316.313156-79.085196L543.296285 559.339424c173.98252 99.410104 363.762841 94.8963 363.762841 94.8963L859.609441 100.693586zM132.100132 764.944152l0-31.637558c0 0 158.157089-23.717168 189.786461-47.448662l79.078033-31.623231C400.964626 654.235724 355.496062 757.038088 132.100132 764.944152zM163.729503 828.203918l15.818267-47.448662c0 0 213.510792-33.609469 268.865517-142.331659l47.434336 0C495.848647 638.423597 369.335255 822.270788 163.729503 828.203918zM622.381481 654.235724l79.085196 31.623231c31.623231 23.730471 189.779298 47.448662 189.779298 47.448662l0 31.637558C667.843906 757.038088 622.381481 654.235724 622.381481 654.235724zM527.485181 638.423597l47.448662 0c55.353702 108.72219 268.864494 142.331659 268.864494 142.331659l15.811104 47.448662C654.004713 822.270788 527.485181 638.423597 527.485181 638.423597z"  horiz-adv-x="1024" />

    
    <glyph glyph-name="line" unicode="&#58967;" d="M521.915 59.827h-19.831v648.345h19.831v-648.345z"  horiz-adv-x="1024" />

    
    <glyph glyph-name="jiangli" unicode="&#58911;" d="M512 874.240198C313.517519 874.240198 152.612964 713.335642 152.612964 514.858027c0-198.481265 160.904555-359.38582 359.387036-359.38582 198.477616 0 359.382171 160.904555 359.382171 359.38582C871.382171 713.335642 710.477616 874.240198 512 874.240198L512 874.240198zM512 203.392424c-172.017988 0-311.465602 139.447614-311.465602 311.465602 0 172.017988 139.447614 311.465602 311.465602 311.465602 172.013123 0 311.465602-139.447614 311.465602-311.465602C823.465602 342.840038 684.013123 203.392424 512 203.392424L512 203.392424zM512 203.392424M512 778.403411c-145.55836 0-263.55025-117.99189-263.55025-263.545385 0-145.557144 117.99189-263.549034 263.55025-263.549034 145.553495 0 263.545385 117.99189 263.545385 263.549034C775.545385 660.411522 657.553495 778.403411 512 778.403411L512 778.403411zM512 299.224345c-119.093867 0-215.628816 96.539814-215.628816 215.633681 0 119.089002 96.534949 215.628816 215.628816 215.628816 119.093867 0 215.628816-96.539814 215.628816-215.628816C727.628816 395.764159 631.093867 299.224345 512 299.224345L512 299.224345zM512 299.224345M735.559163 275.244775l91.427659-177.177579c-37.135189 14.505724-80.019879 13.721203-118.22907-5.991548-38.209191-19.722482-63.699419-54.220708-73.397066-92.886016l-91.422794 177.167849-31.937892-16.487095 134.930236-261.464277 3.207412-6.223863 31.937892 16.482229-3.207412 6.223863c-27.304964 52.91439-6.552267 117.949319 46.362123 145.254283 52.924121 27.300099 117.944454 6.537671 145.259148-46.376719l3.207412-6.214132 31.937892 16.472499-3.217142 6.223863L767.495839 291.717274 735.559163 275.244775 735.559163 275.244775zM735.559163 275.244775M273.39872 246.105615 197.013177 98.067196c37.130323 14.505724 80.015014 13.721203 118.22907-5.986682 38.204326-19.727347 63.694554-54.225573 73.397066-92.890881l81.868672 158.653164 39.226027-2.360859L377.064899-101.592674l-3.206196-6.223863-31.937892 16.482229 3.207412 6.223863c27.304964 52.91439 6.551051 117.949319-46.358474 145.254283-52.92777 27.300099-117.948102 6.537671-145.262797-46.376719l-3.207412-6.214132L118.361648 24.024269l3.217142 6.223863L246.602174 272.532402 273.39872 246.105615 273.39872 246.105615zM273.39872 246.105615"  horiz-adv-x="1024" />

    
    <glyph glyph-name="hetong7" unicode="&#58997;" d="M941.176 738.499l0 0c-26.234 26.234-69.08 26.234-95.313 0l-296.882-296.882 95.313-95.313 296.882 296.882c26.234 26.234 26.234 69.08 0 95.313zM519.451 333.383c-1.846-9.756 6.724-18.324 16.611-16.611l96.631 17.797-95.313 95.313-17.929-96.5zM853.834-32.857c0-17.439-14.24-31.679-31.679-31.679l-652.773 0c-17.439 0-31.679 14.24-31.679 31.679l0 791.007c0 17.439 14.24 31.679 31.679 31.679l652.773 0c11.04 0 20.639-5.6 26.239-14.079l34.238 34.078c-14.559 17.12-36.158 27.998-60.477 27.998l-652.773 0c-43.838 0-79.517-35.678-79.517-79.676l0-791.168c0-43.838 35.678-79.676 79.676-79.676l652.773 0c43.838 0 79.676 35.678 79.676 79.676l0 600.935-47.998-47.998 0-552.777zM746.638 198.494l-501.579 0c-10.56 0-19.199-8.64-19.199-19.199l0-11.999c0-10.56 8.64-19.199 19.199-19.199l501.579 0c10.56 0 19.199 8.64 19.199 19.199l0 11.999c0 10.56-8.64 19.199-19.199 19.199zM650.642 577.198l-405.583 0c-10.56 0-19.199-8.64-19.199-19.199l0-11.999c0-10.56 8.64-19.199 19.199-19.199l355.185 0 50.398 50.398zM649.362 318.329l-130.715-24.159c-13.28-2.4-24.799 9.12-22.399 22.399l1.44 8.16-252.629 0c-10.56 0-19.199-8.64-19.199-19.199l0-11.999c0-10.56 8.64-19.199 19.199-19.199l501.579 0c10.56 0 19.199 8.64 19.199 19.199l0 11.999c0 10.56-8.64 19.199-19.199 19.199l-103.675 0 6.399-6.399zM245.058 400.565l232.47 0 50.398 50.398-282.868 0c-10.56 0-19.199-8.64-19.199-19.199l0-11.999c0-10.56 8.64-19.199 19.199-19.199zM765.837 419.765l0 11.199-30.398-30.398 11.199 0c10.56 0 19.199 8.64 19.199 19.199z"  horiz-adv-x="1038" />

    
    <glyph glyph-name="icon_edit" unicode="&#58944;" d="M769.472-64h-577.248c-53.056 0-96.224 43.168-96.224 96.224v641.408c0 53.056 43.168 96.224 96.224 96.224h448.992c17.728 0 32.064-14.368 32.064-32.064s-14.336-32.064-32.064-32.064h-448.992c-17.664 0-32.064-14.4-32.064-32.064v-641.408c0-17.696 14.4-32.064 32.064-32.064h577.28c17.696 0 32.064 14.368 32.064 32.064l0 513.088c0 17.696 14.336 32.064 32.064 32.064s32.064-14.368 32.064-32.064v-513.12c0-53.056-43.168-96.224-96.224-96.224v0zM581.056 449.12c-8.224 0-16.416 3.136-22.656 9.408-12.544 12.544-12.544 32.8 0 45.344l318.72 318.72c12.544 12.544 32.8 12.544 45.344 0 12.544-12.544 12.544-32.8 0-45.344l-318.72-318.72c-6.24-6.272-14.464-9.408-22.688-9.408v0zM448.768 449.12h-192.416c-17.696 0-32.064 14.368-32.064 32.064s14.368 32.064 32.064 32.064h192.416c17.696 0 32.064-14.368 32.064-32.064s-14.368-32.064-32.064-32.064v0zM641.216 256.704h-384.864c-17.696 0-32.064 14.336-32.064 32.064s14.368 32.064 32.064 32.064h384.832c17.728 0 32.064-14.336 32.064-32.064 0.032-17.728-14.304-32.064-32.032-32.064v0zM641.216 256.704z"  horiz-adv-x="1024" />

    
    <glyph glyph-name="quanbuyidu" unicode="&#59154;" d="M262.75328 158.75584l225.16736 229.9648L246.67648 575.55968c0 0 0-330.56768 0-366.49984C246.67648 173.12256 262.75328 158.75584 262.75328 158.75584zM939.04896 622.66368 595.6608 816.64 251.5712 622.66368l342.9376-255.50336L939.04896 622.66368zM703.40096 388.72064l225.17248-229.9648c0 0 16.07168 14.37184 16.07168 50.304 0 35.93216 0 366.49984 0 366.49984L703.40096 388.72064zM595.70688 315.24864l-71.85408 47.91296-226.7648-234.752c0 0 16.768-9.73312 35.12832-9.73312 18.36544 0 533.376 0 533.376 0s22.35392 3.33824 26.34752 9.73312c-28.04224 29.5424-224.36864 234.752-224.36864 234.752L595.70688 315.24864zM263.10144 3.72224c-80.69632 0-131.3792 68.75648-131.3792 139.59168L131.72224 496.39936c0 2.55488 0.19456 5.05856 0.37888 7.56224C98.00192 488.46336 74.24 454.18496 74.24 414.2848l0-295.6032c0-83.98336 75.3152-172.4416 156.01664-172.4416l443.41248 0c40.33024 0 74.94144 24.24832 90.19904 58.94144-5.31968-0.89088-10.73152-1.4592-16.29696-1.4592L263.10144 3.72224zM312.36608 85.83168c-54.42048 0-98.5344 44.11904-98.5344 98.53952L213.83168 578.51392c0 2.55488 0.19456 5.05344 0.37888 7.56224-34.0992-15.49312-57.86112-49.77664-57.86112-89.6768l0-336.66048c0-62.62784 52.3264-131.3792 123.17184-131.3792l476.25728 0c40.32512 0 74.93632 24.2432 90.19392 58.93632-5.31456-0.89088-10.73152-1.4592-16.29696-1.4592L312.36608 85.8368z"  horiz-adv-x="1024" />

    
    <glyph glyph-name="41shuoshuo" unicode="&#58968;" d="M825.6 44.8l-112 70.4h-147.2c-44.8 0-80 35.2-80 80 0 9.6 6.4 16 16 16 9.6 0 16-6.4 16-16 0-25.6 22.4-48 48-48h156.8l99.2-60.8 57.6 60.8h73.6c25.6 0 48 22.4 48 48l-0 220.8c0 25.6-22.4 48-48 48h-140.8c-9.6 0-16 6.4-16 16s6.4 16 16 16h140.8c41.6 0 76.8-35.2 76.8-80v-224c0-44.8-35.2-80-80-80h-57.6l-67.2-67.2zM870.4 272c-25.6 0-48 22.4-48 48s22.4 48 48 48 48-22.4 48-48-22.4-48-48-48zM870.4 336c-9.6 0-16-6.4-16-16s6.4-16 16-16 16 6.4 16 16-6.4 16-16 16zM688 716.8c35.2 0 67.2-28.8 67.2-67.2v-342.4c0-35.2-28.8-67.2-67.2-67.2h-243.2l-6.4-6.4-140.8-86.4-76.8 80-9.6 9.6h-115.2c-35.2 0-67.2 28.8-67.2 67.2l0 348.8c0 35.2 28.8 67.2 67.2 67.2h592M688 748.8h-588.8c-54.4 0-99.2-44.8-99.2-99.2v-342.4c0-54.4 44.8-99.2 99.2-99.2h102.4l92.8-99.2 160 99.2h233.6c54.4 0 99.2 44.8 99.2 99.2v345.6c0 54.4-44.8 96-99.2 96v0zM540.8 521.6c9.6 0 16-6.4 16-16s-6.4-19.2-16-19.2-16 6.4-16 16 6.4 19.2 16 19.2M540.8 553.6c-25.6 0-48-22.4-48-48s22.4-48 48-48 48 22.4 48 48-22.4 48-48 48v0zM393.6 521.6c9.6 0 16-6.4 16-16s-6.4-16-16-16-16 6.4-16 16 6.4 16 16 16M393.6 553.6c-25.6 0-48-22.4-48-48s22.4-48 48-48 48 22.4 48 48-22.4 48-48 48v0zM246.4 521.6c9.6 0 16-6.4 16-16s-6.4-16-16-16-16 6.4-16 16 6.4 16 16 16M246.4 553.6c-25.6 0-48-22.4-48-48s22.4-48 48-48c25.6 0 48 22.4 48 48s-22.4 48-48 48v0z"  horiz-adv-x="1031" />

    
    <glyph glyph-name="xitongxiaoxi" unicode="&#58960;" d="M566.078 790.169v0.017c-36.967 20.948-81.011 20.948-117.838 0.035-0.916-0.528-4.893-2.869-5.739-3.556l-172.162-141.866h-85.060c-65.239 0-118.295-52.406-118.295-116.835v-287.976c0-64.429 53.057-116.835 118.295-116.835h56.226c9.964 0 18.026 8.063 18.026 18.026v27.919c0 9.964-8.063 18.026-18.026 18.026h-56.226c-29.961 0-54.324 23.712-54.324 52.863l0 287.978c0 29.151 24.363 52.863 54.324 52.863h101.572c4.189 0 8.239 1.461 11.477 4.119l181.422 149.595c17.111 9.717 37.636 9.735 54.747-0.017 16.899-9.559 26.968-26.635 26.968-45.646v-609.804c0-19.012-10.069-36.087-26.968-45.681-16.899-9.576-39.432-8.379-53.163-1.197l-131.463 109.583c-3.697 3.028-8.485 4.453-13.203 4.031-4.753-0.457-9.153-2.781-12.181-6.479l-17.744-21.547c-6.337-7.675-5.245-19.047 2.429-25.367l133.329-111.131c0.809-0.669 4.753-3.011 5.668-3.521 18.096-10.245 38.481-15.667 58.936-15.667 20.525 0 40.911 5.421 58.972 15.684 37.179 21.089 59.359 58.972 59.359 101.291v609.805c0 42.319-22.18 80.202-59.359 101.291zM923.042 558.471c-23.343 57.616-57.634 109.23-101.854 153.432-7.041 7.041-18.448 7.041-25.49 0l-19.751-19.733c-3.38-3.38-5.281-7.957-5.281-12.745 0-4.771 1.901-9.365 5.281-12.745 38.164-38.164 67.703-82.666 87.842-132.255 19.399-47.847 29.257-98.474 29.257-150.439 0-51.983-9.858-102.611-29.257-150.475-20.139-49.589-49.677-94.074-87.842-132.238-7.041-7.041-7.041-18.448 0-25.49l19.751-19.751c3.52-3.52 8.133-5.281 12.745-5.281s9.224 1.76 12.745 5.281c44.22 44.22 78.512 95.834 101.854 153.432 22.532 55.592 33.975 114.299 33.975 174.522-0 60.203-11.443 118.893-33.976 174.485zM720.778 619.96c-7.041 7.041-18.448 7.041-25.49 0l-19.751-19.751c-3.38-3.38-5.281-7.957-5.281-12.745s1.901-9.365 5.281-12.745c50.98-50.963 79.040-118.7 79.040-190.734 0-72.051-28.060-139.79-79.040-190.751-3.38-3.38-5.281-7.957-5.281-12.745s1.901-9.365 5.281-12.745l19.751-19.751c3.521-3.52 8.133-5.281 12.745-5.281s9.224 1.76 12.745 5.281c63.020 63.020 97.735 146.831 97.735 235.993-0.002 89.144-34.716 172.955-97.736 235.975z"  horiz-adv-x="1024" />

    
    <glyph glyph-name="tianjia2" unicode="&#58918;" d="M63.878866 354.83782l0 59.565631 894.065695 0 0-59.565631L63.878866 354.83782 63.878866 354.83782zM481.128899-62.412213 481.128899 831.653483l59.565631 0 0-894.065695L481.128899-62.412213 481.128899-62.412213z"  horiz-adv-x="1024" />

    
    <glyph glyph-name="bumen" unicode="&#59103;" d="M512 768 128 569.6 896 569.6ZM128 64l768 0 0-64-768 0 0 64ZM230.4 512l0-384c0-19.2 12.8-32 32-32s32 12.8 32 32L294.4 512c0 19.2-12.8 32-32 32S230.4 531.2 230.4 512zM390.4 512l0-384c0-19.2 12.8-32 32-32s32 12.8 32 32L454.4 512c0 19.2-12.8 32-32 32S390.4 531.2 390.4 512zM569.6 512l0-384c0-19.2 12.8-32 32-32s32 12.8 32 32L633.6 512c0 19.2-12.8 32-32 32S569.6 531.2 569.6 512zM736 512l0-384c0-19.2 12.8-32 32-32s32 12.8 32 32L800 512c0 19.2-12.8 32-32 32S736 531.2 736 512z"  horiz-adv-x="1024" />

    
    <glyph glyph-name="icon110" unicode="&#58994;" d="M511.659-116.021c0 0-0.98 0-2.93 0h-2.93c0 0-0.98 0-1.95 0h-0.98c0 0-0.98 0-2.93 0h-1.95c-228.52 0-425.78 80.070-420.9 168.94 0 35.16 25.39 67.38 77.15 96.68 38.080 49.811 113.28 89.851 208.010 109.38l73.24-273.439h6.83l61.53 135.739c-28.32 3.91-51.76 28.32-51.76 58.601 0 34.17 27.34 59.57 59.57 59.57s59.57-25.4 59.57-59.57c0-30.28-23.44-54.69-51.76-58.601l61.529-135.739h6.83l72.271 269.529c80.079-18.55 139.649-48.829 178.71-90.819 71.289-32.23 107.42-69.34 107.42-111.33 4.879-91.8-199.221-170.9-434.57-168.941v0 0zM621.038 373.229c0.97-4.88 0.97-10.739 0.97-15.62 0-28.319-10.739-51.76-32.22-72.27-21.49-19.53-47.86-29.29-78.129-29.29-30.27 0-56.64 9.76-78.12 29.29-21.49 20.51-32.23 43.95-32.23 72.27 0 4.881 0 10.74 0.98 15.62-73.25 46.88-120.12 137.7-120.12 239.26 0 74.22 22.46 137.7 66.4 190.43 44.93 53.711 99.61 80.081 163.090 80.081s118.16-26.37 162.11-80.080c44.92-52.73 67.38-116.21 67.38-190.43-0.001-101.56-46.871-192.38-120.111-239.261v0z"  horiz-adv-x="1024" />

    
    <glyph glyph-name="insert" unicode="&#59029;" d="M0 887.172414h1024v-1006.344828H0zM812.137931 710.62069H194.206897a17.655172 17.655172 0 1 0 0 35.310344h617.931034a17.655172 17.655172 0 1 0 0-35.310344zM812.137931 587.034483H194.206897a17.655172 17.655172 0 1 0 0 35.310345h617.931034a17.655172 17.655172 0 1 0 0-35.310345zM812.137931 428.137931H512a17.655172 17.655172 0 1 0 0 35.310345h300.137931a17.655172 17.655172 0 1 0 0-35.310345zM812.137931 304.551724H512a17.655172 17.655172 0 1 0 0 35.310345h300.137931a17.655172 17.655172 0 1 0 0-35.310345zM812.137931 145.655172H194.206897a17.655172 17.655172 0 1 0 0 35.310345h617.931034a17.655172 17.655172 0 1 0 0-35.310345zM812.137931 22.068966H194.206897a17.655172 17.655172 0 1 0 0 35.310344h617.931034a17.655172 17.655172 0 1 0 0-35.310344zM388.413793 375.172414l-123.586207 105.931034v-52.965517H123.586207v-105.931034h141.241379v-52.965518zM247.172414 230.859034V304.551724H105.931034v141.241379h141.24138v73.69269l168.359724-144.313379L247.172414 230.859034zM141.241379 339.862069h141.24138v-32.238345l78.812689 67.54869L282.482759 442.721103V410.482759H141.241379v-70.62069z"  horiz-adv-x="1024" />

    
    <glyph glyph-name="05" unicode="&#58913;" d="M32 384.001c0-0.007 0-0.014 0-0.022 0-265.097 214.903-479.999 479.999-479.999 265.097 0 479.999 214.903 479.999 479.999 0 0.007 0 0.015 0 0.022 0 0.005 0 0.012 0 0.020 0 265.097-214.903 479.999-479.999 479.999-265.097 0-479.999-214.903-479.999-479.999 0-0.007 0-0.015 0-0.022zM889.749 411.113c0 33.433-18.996 63.961-48.989 78.732l-35.021 17.246c-8.287 10.475-16.918 16.897-16.918 16.897h-0.007c19.647 18.389 31.929 44.551 31.929 73.584l1.917 24.48c4.147 52.966-37.681 98.39-90.809 98.316-24.382-0.035-48.381-5.132-67.99-17.66 0 0-67.568 5.993-44.67-105.135 0-29.033 12.282-55.195 31.929-73.584h-0.007s-8.631-6.422-16.917-16.897l-35.022-17.246c-29.993-14.771-48.989-45.299-48.989-78.732v-62.277h-55.344c-18.891 17.76-41.378 31.944-66.225 41.321 88.5-14.824 103.877 18.94 103.877 56.302v0.001c30.287 146.98-59.080 139.053-59.080 139.053-21.705 13.867-47.476 20.847-74.207 22.784-4.767 0.365-10.326 0.574-15.932 0.574-70.054 0.098-125.377-59.98-119.891-130.033l2.536-32.377c0-37.313 15.338-71.037 40.045-95.232-5.864-5.309-12.038-11.584-19.035-18.997-1.935-2.049-2.83-4.209-2.813-6.433l-44.309-21.82c-39.669-19.536-64.793-59.913-64.793-104.132v-82.369h448.749v66.851l240.061 0.186 74.903 135.185v29.136h-48.975v62.277zM412.365 207.727l427.913 0.33 74.902 135.185v29.137l-78.996-136.208h-423.82zM915.181 372.378h-502.816v-136.208h423.82zM575.632 513.387c-29.993-14.771-48.989-45.299-48.989-78.732v-62.277h169.781v200.496l-120.792-59.486zM866.206 434.655c0 33.433-18.996 63.961-48.989 78.732l-120.793 59.486v-200.496h169.781v62.277zM627.57 547.531s-31.922-23.715-31.922-54.429l24.407-8.532-24.407-11.944s32.106-81.051 100.776-100.248v18.713l-62.528 156.441h-6.326zM765.278 547.531s31.923-23.715 31.923-54.429l-24.407-8.532 24.407-11.944s-32.106-81.051-100.776-100.248v18.713l62.528 156.441h6.324zM633.897 541.868s3.242-93.096 62.528-156.478v141.903l-62.528 14.576zM758.952 541.868s-3.242-93.096-62.528-156.478v141.903l62.528 14.576zM666.313 540.175l21.256-43.511-13.953-81.369c6.49-10.283 14.035-20.314 22.808-29.693v154.574h-30.112zM726.536 540.175h-30.112v-154.573c9.002 9.624 16.709 19.933 23.311 30.497l-14.453 80.571 21.253 43.506zM771.486 392.156l25.288 25.288 25.286-25.288zM595.648 621.115c0-55.657 45.119-100.776 100.776-100.776v201.551c-55.657 0-100.776-45.119-100.776-100.776zM696.424 721.891v-201.552c55.657 0 100.776 45.119 100.776 100.776s-45.119 100.777-100.776 100.777zM595.648 621.115c-22.898 111.129 44.669 105.135 44.669 105.135 19.61 12.529 43.608 17.627 67.991 17.66 53.128 0.075 94.957-45.349 90.809-98.316l-1.917-24.48c-3.38 0-6.32 2.257-7.256 5.504-9.384 32.541-45.549 59.852-45.549 59.852-31.059-24.52-122.603-20.706-122.603-20.706-0.858-9.012-12.532-31.523-17.453-40.681-1.298-2.381-3.783-3.97-6.639-3.97-0.001 0-0.001 0-0.002 0h-2.050zM216.264 327.519c-39.669-19.536-64.792-59.913-64.792-104.132v-82.369h224.554v265.178l-159.761-78.678zM600.218 223.388c0 44.218-25.124 84.596-64.793 104.132l-159.761 78.677v-265.178h224.554v82.369zM487.738 355.773c-35.998 38.138-50.254 46.307-112.176 46.315-61.923-0.008-76.178-8.178-112.177-46.315-17.549-18.592 50.195-46.285 112.177-46.314 61.981 0.030 129.724 27.724 112.176 46.314zM242.376 470.002c0-73.612 59.675-133.287 133.287-133.287v266.574c-73.612 0-133.287-59.675-133.287-133.287zM375.664 603.289v-266.574c73.612 0 133.287 59.675 133.287 133.287s-59.675 133.287-133.287 133.287zM449.871 609.054s89.366 7.927 59.080-139.053h-2.711c-0.001 0-0.001 0-0.002 0-3.777 0-7.064 2.101-8.755 5.197-6.535 12.166-21.975 41.938-23.109 53.858 0 0-51.493-2.142-98.711 5.36v97.421c26.732-1.935 52.503-8.918 74.208-22.784zM359.947 632.412c5.261-0.007 10.507-0.196 15.717-0.574v-97.421c-25.185 4.002-49.156 10.745-63.445 22.028 0 0-47.833-36.123-60.246-79.162-1.238-4.296-5.126-7.28-9.596-7.28l-2.536 32.378c-5.486 70.052 49.836 130.131 120.105 130.031z"  horiz-adv-x="1024" />

    
    <glyph glyph-name="peixun" unicode="&#58885;" d="M315.904 555.52c20.992-63.488 79.36-63.488 99.84 0 6.656 3.584 13.824 14.336 14.848 23.04 1.024 9.216 0.512 21.504-8.704 21.504-2.048 29.696-18.432 54.784-55.296 54.784-36.352 0-54.784-22.016-56.832-54.784-9.216 0-10.24-12.288-8.704-21.504 1.024-8.704 8.192-19.456 14.848-23.04zM450.56 212.992c24.064 0 44.032 19.968 44.032 44.032v1.536L665.6 429.568c4.608 4.608 4.608 12.288 0 16.896-4.608 4.608-12.288 4.608-16.896 0l-154.624-154.112V437.76c0 31.744-23.04 58.88-55.296 66.048l-23.552 5.12c-20.48-40.448-78.336-40.448-98.304 0l-23.552-5.12c-32.256-6.656-55.296-34.304-55.296-66.048v-180.736c0-24.064 19.456-44.032 44.032-44.032 0-12.288 9.728-22.016 22.016-22.016h124.416c12.288 0 22.016 10.24 22.016 22.016zM171.52 231.424c18.944-8.192 40.448 5.12 40.448 26.112 0 9.216-5.632 16.896-14.336 19.968-27.136 9.728-47.104 35.328-47.104 66.048V675.84c0 38.912 31.232 70.144 70.144 70.144h583.68c38.912 0 70.144-31.232 70.144-70.144v-332.288c0-38.912-31.232-70.144-70.144-70.144h-232.448c-14.336 0-26.112-11.776-26.112-26.112s11.776-26.112 26.112-26.112h232.96c67.584 0 122.368 54.784 122.368 122.368V675.84c0 67.584-54.784 122.368-122.368 122.368h-583.68C153.6 798.208 98.816 743.424 98.816 675.84v-332.288c-0.512-50.176 29.696-93.184 72.704-112.128zM269.824 148.48H178.176c-44.032 0-79.872-35.84-79.872-79.872v-105.472h251.392v105.472c0 44.032-35.84 79.872-79.872 79.872zM559.616 148.48H468.48c-44.032 0-79.872-35.84-79.872-79.872v-105.472H640v105.472c-0.512 44.032-36.352 79.872-80.384 79.872zM849.408 148.48h-91.136c-44.032 0-79.872-35.84-79.872-79.872v-105.472h251.392v105.472c0 44.032-35.84 79.872-80.384 79.872z"  horiz-adv-x="1024" />

    
    <glyph glyph-name="change" unicode="&#58974;" d="M544.563-127.978h-389.754c-51.094 0-92.789 42.095-92.789 93.989v836c0 51.794 41.795 93.989 92.989 93.989h701.216c51.394 0 92.989-42.195 92.989-94.189v-463.745c0-18.798-15.198-34.096-34.096-34.096s-34.096 15.198-34.096 34.096v463.545c0 14.298-11.199 25.897-24.797 25.897h-701.216c-13.698 0-24.797-11.499-24.797-25.697v-836c0-14.398 10.799-25.697 24.497-25.697h389.754c18.798 0 34.096-15.198 34.096-34.096 0-18.798-15.098-33.996-33.996-33.996zM768.936 558.84h-526.537c-18.798 0-34.096 15.198-34.096 34.096s15.198 34.096 34.096 34.096h526.537c18.798 0 34.096-15.198 34.096-34.096s-15.198-34.096-34.096-34.096zM534.864 379.662h-292.465c-18.798 0-34.096 15.198-34.096 34.096s15.198 34.096 34.096 34.096h292.465c18.798 0 34.096-15.198 34.096-34.096s-15.198-34.096-34.096-34.096zM739.64-68.285c-115.586 0-209.575 95.789-209.575 213.275 0 18.798 15.198 34.096 34.096 34.096 18.798 0 34.096-15.198 34.096-34.096 0-79.99 63.492-145.083 141.283-145.083 19.898 0 39.095 4.199 57.193 12.399 17.198 7.799 37.396 0.2 45.195-16.898 7.799-17.198 0.2-37.396-16.898-45.195-26.897-12.199-55.593-18.498-85.39-18.498zM915.219 110.894c-18.798 0-34.096 15.198-34.096 34.096 0 79.99-63.492 145.083-141.283 145.083-18.698 0-36.996-3.7-54.094-10.999-17.398-7.399-37.396 0.7-44.795 17.998-7.399 17.398 0.7 37.396 17.998 44.795 25.697 10.899 52.894 16.398 80.89 16.398 115.586 0 209.575-95.789 209.575-213.275-0.1-18.798-15.398-34.096-34.196-34.096zM681.147 230.379h-58.593c-11.799 0-22.697 6.099-28.897 16.098-6.199 9.999-6.799 22.397-1.7 33.096l29.297 59.793c5.799 11.799 17.598 19.098 30.596 19.098 13.098 0 24.997-7.399 30.596-19.098l29.297-59.793c5.199-10.599 4.599-22.997-1.7-33.096-6.099-10.099-17.198-16.098-28.897-16.098zM826.929-77.684h-1.2c-11.799 0.4-22.597 6.799-28.397 16.998l-29.297 50.594c-5.899 10.199-6.099 22.697-0.6 33.096 5.499 10.399 16.098 17.198 27.797 17.998l66.392 4.599c12.998 0.8 25.297-5.799 31.896-16.998 6.499-11.299 5.999-25.297-1.2-36.096l-37.096-55.193c-6.399-9.399-16.898-14.998-28.297-14.998z"  horiz-adv-x="1024" />

    
    <glyph glyph-name="tubiaozhizuomoban" unicode="&#58896;" d="M593.1 453.6c62.8 27.7 108.4 87.3 115.8 159.7h-0.1c0.1 0.7 0.2 1.4 0.2 2.2 0 7.2-5.9 13.1-13.1 13.1-7.1 0-12.9-5.7-13.1-12.7-9.3-90.6-87.7-158-180.1-152.4-82.9 5.1-151.6 72-158.8 154.7-8.1 92.9 58.8 173.5 149.3 184.2h0.5c7.2 0 13.1 5.9 13.1 13.1 0 7.2-5.9 13.1-13.1 13.1-1 0-1.9-0.1-2.8-0.3v0.3c-105.4-12-183.3-106.1-173.1-214.3 6.7-71 52.5-131.5 115-160-160.7-34.9-282.7-174.7-290.5-343.8-0.4-9.4 7.4-17.3 16.9-17.3 9.1 0 16.3 7.3 16.7 16.4 8.6 177.6 155.8 319.5 335.5 319.5s326.9-141.9 335.5-319.5c0.4-9.1 7.6-16.4 16.7-16.4 9.5 0 17.3 7.8 16.9 17.3-7.9 168-128.3 307.1-287.4 343.1zM539.6 818.9m-13.1 0a13.1 13.1 0 1 1 26.2 0 13.1 13.1 0 1 1-26.2 0ZM697.2 661.4m-13.1 0a13.1 13.1 0 1 1 26.2 0 13.1 13.1 0 1 1-26.2 0ZM577.6 804.3c43.1-17.5 77.3-52.2 94.3-95.5 2.5-6.2 9.6-9.3 16-7.3 7.3 2.3 11.1 10.4 8.2 17.6-19.6 49.4-58.7 89-107.9 109.3-7.1 2.9-15.3-0.7-17.7-8-2.1-6.5 0.8-13.6 7.1-16.1z"  horiz-adv-x="1024" />

    
    <glyph glyph-name="combine" unicode="&#59268;" d="M810.464 56.70399999999995c-101.536 48.96-174.048 135.968-210.304 235.68-14.496 36.256-23.584 77.952-27.2 114.208v63.456h195.808c14.496 0 25.376 16.32 14.496 32.64L525.824 810.88c-9.056 10.88-28.992 10.88-36.256 0l-250.176-308.192c-9.056-10.88 0-32.64 14.496-32.64h197.6v-63.456c-5.44-38.08-14.496-79.776-27.2-114.208-36.256-99.712-108.768-186.72-210.304-235.68-14.496-5.44-19.936-23.584-14.496-36.256l23.584-56.192c7.264-14.496 23.584-19.936 38.08-10.88 108.768 52.576 195.808 135.968 248.384 235.68 54.4-99.712 139.584-183.104 250.176-235.68 14.496-7.264 32.64-5.44 38.08 10.88l23.584 56.192c10.848 12.704 3.584 29.024-10.912 36.256z"  horiz-adv-x="1024" />

    
    <glyph glyph-name="number2" unicode="&#58945;" d="M512 896a512 512 0 1 1 512-512 512 512 0 0 1-512 512z m169.6-768H352.64v50.56C524.8 320 618.88 404.48 618.88 491.52A91.52 91.52 0 0 1 518.4 584.3199999999999a156.8 156.8 0 0 1-128-64l-38.4 40.32A200.96 200.96 0 0 0 518.4 640a148.48 148.48 0 0 0 160.64-148.48c0-103.04-99.2-196.48-232.32-307.84h234.88z"  horiz-adv-x="1024" />

    
    <glyph glyph-name="number4" unicode="&#58946;" d="M512 896a512 512 0 1 1 512-512 512 512 0 0 1-512 512z m192-640H631.04v-128h-64v128H320v54.4L542.08 640h88.96v-326.4H704zM566.4 313.6V581.12L384.64 313.6h181.76z"  horiz-adv-x="1024" />

    
    <glyph glyph-name="number3" unicode="&#58947;" d="M512 896a512 512 0 1 1 512-512 512 512 0 0 1-512 512z m12.16-768a202.88 202.88 0 0 0-172.16 81.92l35.84 38.4a167.04 167.04 0 0 1 135.04-64c70.4 0 113.28 36.48 113.28 92.8s-49.28 86.4-120.32 86.4h-50.56v55.68h49.92c64 0 112.64 24.32 112.64 81.92S576 584.96 520.32 584.96a163.2 163.2 0 0 1-128-60.16l-33.92 38.4A206.72 206.72 0 0 0 524.8 640c92.8 0 163.84-48 163.84-131.84a118.4 118.4 0 0 0-104.32-115.2 128 128 0 0 0 112-122.88C696.96 188.15999999999997 631.04 128 524.16 128z"  horiz-adv-x="1024" />

    
    <glyph glyph-name="number5" unicode="&#58948;" d="M512 896a512 512 0 1 1 512-512 512 512 0 0 1-512 512z m12.16-768a198.4 198.4 0 0 0-172.16 80.64l37.12 42.24a158.72 158.72 0 0 1 135.04-64A106.88 106.88 0 0 1 640 291.84000000000003a104.32 104.32 0 0 1-115.2 108.16 154.24 154.24 0 0 1-112.64-46.72l-44.8 16V640h298.88v-55.68H428.16v-175.36a164.48 164.48 0 0 0 114.56 45.44 151.68 151.68 0 0 0 156.16-160.64A163.2 163.2 0 0 0 524.16 128z"  horiz-adv-x="1024" />

    
    <glyph glyph-name="shixiang" unicode="&#59070;" d="M838.4 271.36h-346.24c-1.014 0.114-2.189 0.179-3.379 0.179-17.673 0-32-14.327-32-32 0-1.19 0.065-2.365 0.192-3.522-0.017-0.049-0.019-0.276-0.019-0.503 0-19.087 15.473-34.56 34.56-34.56 0.227 0 0.454 0.002 0.68 0.007l346.206-0.001c1.014-0.114 2.189-0.179 3.379-0.179 17.673 0 32 14.327 32 32 0 1.19-0.065 2.365-0.192 3.522 0.017 0.049 0.019 0.276 0.019 0.503 0 19.087-15.473 34.56-34.56 34.56-0.227 0-0.454-0.002-0.68-0.007zM838.4 572.16h-346.24c-1.014 0.114-2.189 0.179-3.379 0.179-17.673 0-32-14.327-32-32 0-1.19 0.065-2.365 0.192-3.522-0.127-0.871-0.192-2.046-0.192-3.236 0-17.673 14.327-32 32-32 1.19 0 2.365 0.065 3.522 0.192l346.097-0.013c1.014-0.114 2.189-0.179 3.379-0.179 17.673 0 32 14.327 32 32 0 1.19-0.065 2.365-0.192 3.522 0.017 0.049 0.019 0.276 0.019 0.503 0 19.087-15.473 34.56-34.56 34.56-0.227 0-0.454-0.002-0.68-0.007zM868.48 878.72h-712.96c-85.969-0.364-155.52-70.139-155.52-156.159 0-0 0-0.001 0-0.001l-0-677.12c0.362-85.746 69.776-155.159 155.487-155.52l712.993-0c85.746 0.362 155.159 69.776 155.52 155.487l0 677.153c0.022 0.959 0.034 2.089 0.034 3.222 0 84.477-68.483 152.96-152.96 152.96-0.912 0-1.822-0.008-2.731-0.024zM948.48 40.32c0.002-0.191 0.003-0.417 0.003-0.643 0-43.829-35.531-79.36-79.36-79.36-0.226 0-0.452 0.001-0.677 0.003l-712.925-0c-0.191-0.002-0.417-0.003-0.643-0.003-43.829 0-79.36 35.531-79.36 79.36 0 0.226 0.001 0.452 0.003 0.677l-0 682.205c-0.007 0.382-0.010 0.832-0.010 1.283 0 43.829 35.531 79.36 79.36 79.36 0.229 0 0.457-0.001 0.685-0.003l712.925 0c0.191 0.002 0.417 0.003 0.643 0.003 43.829 0 79.36-35.531 79.36-79.36 0-0.226-0.001-0.452-0.003-0.677zM286.080 346.24c-63.8 0-115.52-51.72-115.52-115.52s51.72-115.52 115.52-115.52c63.8 0 115.52 51.72 115.52 115.52 0 63.8-51.72 115.52-115.52 115.52zM286.080 195.84c-1.004-0.097-2.172-0.152-3.352-0.152-20.501 0-37.12 16.619-37.12 37.12 0 1.18 0.055 2.347 0.163 3.499-0.108 0.857-0.163 2.024-0.163 3.204 0 20.501 16.619 37.12 37.12 37.12 1.18 0 2.347-0.055 3.499-0.163 0.857 0.108 2.024 0.163 3.204 0.163 20.501 0 37.12-16.619 37.12-37.12 0-1.18-0.055-2.347-0.163-3.499 0.014-0.045 0.016-0.271 0.016-0.498 0-21.915-17.765-39.68-39.68-39.68-0.227 0-0.453 0.002-0.679 0.006zM376.32 632.32l-110.080-110.080-49.92 49.92c-6.128 6.924-15.037 11.267-24.96 11.267s-18.832-4.343-24.929-11.232c-6.955-6.163-11.298-15.072-11.298-24.995 0-9.923 4.343-18.832 11.232-24.929l79.395-80.671c7.365-6.405 17.053-10.31 27.653-10.31 0.854 0 1.702 0.025 2.543 0.075 15.244-0.006 15.244 5.114 29.964 10.234l135.68 134.4c6.924 6.128 11.267 15.037 11.267 24.96s-4.343 18.832-11.232 24.929c-30.115 14.111-49.955 14.111-65.315 6.431z"  horiz-adv-x="1024" />

    
    <glyph glyph-name="saomiao" unicode="&#58890;" d="M918.5 363.3h-804.1c-12 0-21.7 9.7-21.7 21.7s9.7 21.7 21.7 21.7h804.1c12 0 21.7-9.7 21.7-21.7s-9.7-21.7-21.7-21.7zM85.3 510.2c-12 0-21.7 9.7-21.7 21.7v112.5c0 59.9 48.7 108.6 108.5 108.6h186.4c12 0 21.7-9.7 21.7-21.7s-9.7-21.7-21.7-21.7h-186.4c-35.9 0-65.1-29.2-65.1-65.2v-112.5c0-12-9.8-21.7-21.7-21.7zM938.5 510.2c-12 0-21.7 9.7-21.7 21.7v112.5c0 35.9-29.2 65.2-65.1 65.2h-186.4c-12 0-21.7 9.7-21.7 21.7s9.7 21.7 21.7 21.7h186.4c59.8 0 108.5-48.7 108.5-108.6v-112.5c0-12-9.7-21.7-21.7-21.7zM851.7 6.9h-186.4c-12 0-21.7 9.7-21.7 21.7s9.7 21.7 21.7 21.7h186.4c35.9 0 65.1 29.2 65.1 65.2v112.5c0 12 9.7 21.7 21.7 21.7s21.7-9.7 21.7-21.7v-112.5c0-59.9-48.7-108.6-108.5-108.6zM358.5 6.9h-186.4c-59.8 0-108.5 48.7-108.5 108.6v112.5c0 12 9.7 21.7 21.7 21.7s21.7-9.7 21.7-21.7v-112.5c0-35.9 29.2-65.2 65.1-65.2h186.4c12 0 21.7-9.7 21.7-21.7s-9.7-21.7-21.7-21.7z"  horiz-adv-x="1024" />

    
    <glyph glyph-name="zhunbeijieduan" unicode="&#58923;" d="M512 895.5904C229.5808 895.5904 0.4096 666.4192 0.4096 384 0.4096 101.5808 229.5808-127.5904 512-127.5904c282.4192 0 511.5904 229.1712 511.5904 511.5904C1023.5904 666.4192 794.4192 895.5904 512 895.5904z m173.93664-372.4288L557.01504 384l130.9696-139.1616v-153.47712H338.06336v153.47712L469.03296 384l-130.9696 139.1616v153.47712h347.87328v-153.47712z"  horiz-adv-x="1024" />

    
    <glyph glyph-name="fanhui" unicode="&#58924;" d="M532.526499-8.817574L139.506311 384.202615 532.526499 777.222803c12.258185 12.258185 12.432147 32.892131-0.187265 45.51052-12.707416 12.707416-32.995485 12.703323-45.511543 0.187265L75.166957 411.260877c-7.120165-7.120165-10.163477-17.065677-8.990768-26.624381-1.500167-9.755178 1.5104-20.010753 8.990768-27.491121l411.660734-411.660734c12.258185-12.258185 32.892131-12.432147 45.511543 0.187265 12.707416 12.707416 12.7023 32.995485 0.187265 45.51052z"  horiz-adv-x="1024" />

    
    <glyph glyph-name="gengduo" unicode="&#58925;" d="M492.675886-8.817574L885.696074 384.202615 492.675886 777.222803c-12.258185 12.258185-12.432147 32.892131 0.187265 45.51052 12.707416 12.707416 32.995485 12.703323 45.511543 0.187265l411.660734-411.660734c7.120165-7.120165 10.163477-17.065677 8.990768-26.624381 1.500167-9.755178-1.5104-20.010753-8.990768-27.491121L538.374694-54.515359c-12.258185-12.258185-32.892131-12.432147-45.511543 0.187265-12.707416 12.707416-12.703323 32.995485-0.187265 45.51052z"  horiz-adv-x="1024" />

    
    <glyph glyph-name="wendangtianjia" unicode="&#58957;" d="M869.44 21.696h-707.84c-50.432 0-91.52 41.088-91.52 91.584v543.232c0 50.496 41.088 91.52 91.52 91.52h602.432v-166.464c0-15.232 12.352-27.584 27.584-27.584h169.408v-440.704c0-50.56-41.088-91.584-91.584-91.584zM161.6 684.032c-0 0-0 0-0 0-15.199 0-27.52-12.321-27.52-27.52 0 0 0 0 0 0l0-543.232c0-15.168 12.352-27.584 27.52-27.584h707.84c15.22 0.036 27.548 12.364 27.584 27.581l0 376.707h-105.408c-50.551 0.073-91.511 41.033-91.584 91.577l-0 102.471h-538.432zM763.904 683.968h63.872v-64h-63.872zM828.352 617.472h63.872v-63.936h-63.872zM648 384.896c-0.036-17.292-14.063-31.296-31.36-31.296-0 0-0 0-0 0l-257.28-0c-16.699 0.778-29.944 14.506-29.944 31.328s13.244 30.55 29.874 31.325l257.35 0.003c0 0 0 0 0 0 17.32 0 31.36-14.040 31.36-31.36 0 0 0 0 0 0zM488 224.896c-0-0-0-0-0-0-17.262 0-31.26 13.975-31.296 31.229l-0 257.411c0.778 16.699 14.506 29.944 31.328 29.944s30.55-13.244 31.325-29.874l0.003-257.478c-0.073-17.265-14.085-31.232-31.36-31.232-0 0-0 0-0 0z"  horiz-adv-x="1024" />

    
    <glyph glyph-name="-expressionless" unicode="&#59115;" d="M512.003 383.997m-491.986961 0a491.986961 491.986961 0 1 1 983.973922 0 491.986961 491.986961 0 1 1-983.973922 0ZM617.431206-35.355819c-271.716531 0-491.984961 220.26843-491.984961 491.984961 0 145.168284 62.886123 275.632538 162.888318 365.684714-159.280311-81.438159-268.320524-247.140483-268.320524-438.312856 0-271.716531 220.26843-491.984961 491.984961-491.984961 126.548247 0 241.924473 47.794093 329.096643 126.298247-67.100131-34.312067-143.12228-53.670105-223.664437-53.670105zM878.789716 482.761193h-163.642319c-11.056022 0-20.014039 8.962018-20.014039 20.014039 0 11.054022 8.958017 20.014039 20.014039 20.014039h163.642319c11.056022 0 20.014039-8.962018 20.014039-20.014039 0-11.054022-8.962018-20.014039-20.014039-20.014039zM503.964984 482.761193h-163.642319c-11.056022 0-20.014039 8.962018-20.014039 20.014039 0 11.054022 8.958017 20.014039 20.014039 20.014039h163.642319c11.056022 0 20.014039-8.962018 20.014039-20.014039 0-11.054022-8.962018-20.014039-20.014039-20.014039zM796.969557 185.654613H435.772851c-11.056022 0-20.014039 8.962018-20.014039 20.014039s8.958017 20.014039 20.014039 20.014039h361.194706c11.056022 0 20.014039-8.962018 20.014039-20.014039s-8.960018-20.014039-20.012039-20.014039zM934.963826 672.607564c-56.862111 83.176162-136.024266 147.268288-228.930447 185.340362-10.22402 4.192008-21.918043-0.702001-26.108051-10.930022-4.192008-10.22802 0.702001-21.918043 10.930021-26.110051 85.646167-35.098069 158.62831-94.192184 211.064413-170.890333 53.680105-78.522153 82.05216-170.512333 82.05216-266.01652 0-260.246508-211.726414-471.970922-471.970922-471.970922S40.030078 123.752492 40.030078 384.001 251.754492 855.969922 511.999 855.969922c11.056022 0 20.014039 8.962018 20.014039 20.014039S523.055022 896 511.999 896C229.680449 896 0 666.317551 0 384.001s229.680449-511.999 511.999-511.999 511.999 229.680449 511.999 511.999c0.004 103.600202-30.78406 203.398397-89.034174 288.606564zM878.789716 482.761193c11.056022 0 20.014039 8.962018 20.014039 20.014039 0 11.054022-8.958017 20.014039-20.014039 20.014039h-163.642319c-11.056022 0-20.014039-8.962018-20.014039-20.014039 0-11.054022 8.958017-20.014039 20.014039-20.014039h163.642319zM415.758812 205.666652c0-11.054022 8.958017-20.014039 20.014039-20.014039h361.194706c11.056022 0 20.014039 8.962018 20.014039 20.014039s-8.958017 20.014039-20.014039 20.014039H435.772851a20.010039 20.010039 0 0 1-20.014039-20.014039zM523.979023 502.775232c0 11.054022-8.958017 20.014039-20.014039 20.014039h-163.642319c-11.056022 0-20.014039-8.962018-20.014039-20.014039 0-11.054022 8.958017-20.014039 20.014039-20.014039h163.642319c11.052022 0 20.014039 8.960018 20.014039 20.014039zM628.061227 860.519931m-20.014039 0a20.014039 20.014039 0 1 1 40.028078 0 20.014039 20.014039 0 1 1-40.028078 0Z"  horiz-adv-x="1024" />

    
    <glyph glyph-name="-sad-" unicode="&#59121;" d="M512.004 383.998m-491.988 0a491.988 491.988 0 1 1 983.976 0 491.988 491.988 0 1 1-983.976 0ZM617.43-35.354c-271.716 0-491.986 220.268-491.986 491.986 0 145.168 62.886 275.632 162.888 365.684C129.056 740.876 20.016 575.176 20.016 384c0-271.716 220.268-491.986 491.986-491.986 126.548 0 241.924 47.796 329.098 126.298-67.106-34.308-143.124-53.666-223.67-53.666zM735.828 61.528H496.912c-11.056 0-20.014 8.958-20.014 20.014s8.958 20.014 20.014 20.014h238.914c11.056 0 20.014-8.958 20.014-20.014s-8.956-20.014-20.012-20.014zM442.172 267.502c-48.674 0-92.65 12.454-117.634 33.316-8.486 7.082-9.62 19.706-2.536 28.188 7.082 8.484 19.702 9.62 28.188 2.536 17.472-14.586 53.576-24.012 91.98-24.012 37.486 0 74.086 9.604 93.242 24.464 8.732 6.776 21.3 5.188 28.08-3.546 6.776-8.732 5.188-21.304-3.546-28.08-26.524-20.58-70.554-32.866-117.774-32.866zM789.346 267.502c-48.674 0-92.65 12.454-117.634 33.316-8.486 7.082-9.62 19.706-2.536 28.188s19.706 9.62 28.188 2.536c17.472-14.586 53.576-24.012 91.98-24.012 37.486 0 74.086 9.604 93.242 24.464 8.73 6.776 21.304 5.188 28.08-3.546 6.776-8.732 5.188-21.304-3.546-28.08-26.526-20.58-70.554-32.866-117.774-32.866zM347.382 369.92c-7.438 0-14.36 0.836-20.53 2.544-10.654 2.946-16.9 13.972-13.954 24.628 2.948 10.654 13.984 16.904 24.628 13.954 9.852-2.73 30.072-0.814 53.044 9.608 22.486 10.194 37.75 24.62 42.904 34.39 5.156 9.78 17.26 13.528 27.038 8.368 9.778-5.156 13.524-17.264 8.368-27.038-10.488-19.886-33.582-39.392-61.778-52.178-20.608-9.346-41.672-14.276-59.72-14.276zM878.98 369.92c-18.05 0-39.108 4.928-59.724 14.278-28.194 12.782-51.288 32.288-61.774 52.174-5.158 9.776-1.41 21.882 8.368 27.038 9.778 5.164 21.882 1.406 27.038-8.368 5.156-9.77 20.418-24.194 42.898-34.388 22.974-10.42 43.2-12.338 53.044-9.61 10.666 2.938 21.68-3.298 24.628-13.952 2.946-10.654-3.298-21.68-13.952-24.628-6.166-1.706-13.09-2.544-20.526-2.544zM711.124 855.832c-10.176 4.304-21.922-0.464-26.224-10.646s0.464-21.926 10.646-26.224c175.212-74.03 288.428-244.764 288.428-434.96 0-260.248-211.724-471.97-471.968-471.97S40.03 123.756 40.03 384.002 251.756 855.97 512.002 855.97c11.056 0 20.014 8.958 20.014 20.014S523.058 896 512.002 896c-282.32 0-512-229.68-512-511.998 0-282.32 229.68-512.002 512-512.002C794.318-128 1024 101.68 1024 384c0.002 206.322-122.812 391.528-312.876 471.832zM496.912 101.556c-11.056 0-20.014-8.958-20.014-20.014s8.958-20.014 20.014-20.014h238.914c11.056 0 20.014 8.958 20.014 20.014s-8.958 20.014-20.014 20.014H496.912zM350.194 331.54c-8.488 7.088-21.106 5.948-28.188-2.536-7.086-8.486-5.948-21.106 2.536-28.188 24.984-20.86 68.96-33.316 117.634-33.316 47.218 0 91.248 12.286 117.778 32.864 8.734 6.776 10.322 19.348 3.546 28.08-6.778 8.738-19.348 10.32-28.08 3.546-19.158-14.858-55.758-24.464-93.242-24.464-38.408 0.002-74.514 9.43-91.984 24.014zM671.714 300.816c24.984-20.86 68.96-33.316 117.634-33.316 47.218 0 91.248 12.286 117.778 32.864 8.734 6.776 10.322 19.348 3.546 28.08-6.776 8.738-19.35 10.32-28.08 3.546-19.158-14.858-55.758-24.464-93.242-24.464-38.404 0-74.508 9.426-91.98 24.012-8.486 7.088-21.104 5.948-28.188-2.536-7.09-8.48-5.954-21.104 2.532-28.186zM347.382 369.92c18.048 0 39.108 4.926 59.718 14.272 28.196 12.786 51.294 32.29 61.778 52.176 5.158 9.776 1.41 21.882-8.368 27.038-9.778 5.164-21.882 1.41-27.038-8.368-5.156-9.77-20.418-24.194-42.904-34.388-22.972-10.42-43.19-12.34-53.042-9.608-10.646 2.936-21.68-3.298-24.628-13.952-2.946-10.65 3.296-21.68 13.952-24.628 6.17-1.704 13.094-2.542 20.532-2.542zM819.26 384.192c20.616-9.346 41.674-14.272 59.722-14.272 7.434 0 14.362 0.836 20.532 2.546 10.65 2.948 16.896 13.976 13.946 24.628a20.004 20.004 0 0 1-24.628 13.946c-9.842-2.714-30.062-0.812-53.042 9.61-22.48 10.192-37.746 24.618-42.898 34.388-5.156 9.778-17.26 13.53-27.038 8.368-9.778-5.156-13.524-17.264-8.368-27.038 10.482-19.888 33.576-39.39 61.774-52.176zM638.204 858.318m-20.014 0a20.014 20.014 0 1 1 40.028 0 20.014 20.014 0 1 1-40.028 0Z"  horiz-adv-x="1024" />

    
    <glyph glyph-name="-smile" unicode="&#59123;" d="M512.003 383.997m-491.986961 0a491.986961 491.986961 0 1 1 983.973922 0 491.986961 491.986961 0 1 1-983.973922 0ZM617.431206-35.355819c-271.716531 0-491.984961 220.26843-491.984961 491.984961 0 145.168284 62.886123 275.632538 162.888318 365.684714-159.280311-81.438159-268.320524-247.140483-268.320524-438.312856 0-271.716531 220.26843-491.984961 491.984961-491.984961 126.548247 0 241.924473 47.794093 329.096643 126.298247-67.100131-34.312067-143.12228-53.670105-223.664437-53.670105zM426.846834 536.295297m-60.044118 0a60.044117 60.044117 0 1 1 120.088235 0 60.044117 60.044117 0 1 1-120.088235 0ZM764.881494 536.295297m-60.044117 0a60.044117 60.044117 0 1 1 120.088234 0 60.044117 60.044117 0 1 1-120.088234 0ZM300.574587 414.457059c-36.536071 0-66.158129-29.618058-66.158129-66.156129h132.312258c0.004 36.538071-29.618058 66.156129-66.154129 66.156129zM877.629714 423.319077c-36.536071 0-66.158129-29.618058-66.158129-66.156129h132.312258c0.002 36.538071-29.616058 66.156129-66.154129 66.156129zM604.06718 115.780476c-53.018104 0-101.998199 28.800056-127.81825 75.158147-5.380011 9.658019-1.914004 21.846043 7.744015 27.226053 9.652019 5.386011 21.846043 1.914004 27.222053-7.744015 18.764037-33.684066 54.344106-54.608107 92.852182-54.608107 37.528073 0 73.512144 21.136041 93.908183 55.160108 5.686011 9.478019 17.970035 12.562025 27.458054 6.874013 9.482019-5.684011 12.558025-17.976035 6.874013-27.458053-27.588054-46.02009-76.72415-74.608146-128.24025-74.608146zM941.751839 662.415544c-52.404102 80.728158-126.076246 144.906283-213.054416 185.592362-10.00802 4.684009-21.928043 0.362001-26.612052-9.650019-4.684009-10.01202-0.362001-21.926043 9.650019-26.608052 80.190157-37.510073 148.116289-96.686189 196.440384-171.128334 49.582097-76.386149 75.792148-165.124323 75.792148-256.622501 0-260.246508-211.726414-471.970922-471.970922-471.970922S40.030078 123.752492 40.030078 384.001 251.754492 855.969922 511.999 855.969922c11.056022 0 20.014039 8.962018 20.014039 20.014039S523.055022 896 511.999 896C229.680449 896 0 666.317551 0 384.001s229.680449-511.999 511.999-511.999 511.999 229.680449 511.999 511.999c0.004 99.250194-28.436056 195.524382-82.246161 278.414544zM505.872988 536.287297c0 44.144086-35.91407 80.058156-80.058156 80.058157s-80.058156-35.91407-80.058157-80.058157 35.91407-80.058156 80.058157-80.058156 80.058156 35.91407 80.058156 80.058156z m-80.060156-40.028078c-22.072043 0-40.030078 17.958035-40.030079 40.030078s17.958035 40.030078 40.030079 40.030079 40.030078-17.958035 40.030078-40.030079-17.954035-40.030078-40.030078-40.030078zM763.859492 456.229141c44.144086 0 80.058156 35.91407 80.058156 80.058156s-35.91407 80.058156-80.058156 80.058157-80.058156-35.91207-80.058156-80.058157 35.91407-80.058156 80.058156-80.058156z m0 120.088235c22.072043 0 40.030078-17.958035 40.030078-40.030079s-17.958035-40.030078-40.030078-40.030078-40.030078 17.958035-40.030078 40.030078 17.958035 40.030078 40.030078 40.030079zM511.214998 210.416661c-5.380011 9.658019-17.570034 13.126026-27.222053 7.744015-9.658019-5.380011-13.124026-17.568034-7.744015-27.226053 25.82405-46.360091 74.802146-75.156147 127.81825-75.156147 51.512101 0 100.652197 28.586056 128.24425 74.606146 5.684011 9.478019 2.608005 21.774043-6.874013 27.458053a20.014039 20.014039 0 0 1-27.458054-6.874013c-20.39804-34.024066-56.38211-55.158108-93.908183-55.158108-38.512075-0.002-74.090145 20.922041-92.856182 54.606107zM648.021266 854.021918m-20.014039 0a20.014039 20.014039 0 1 1 40.028078 0 20.014039 20.014039 0 1 1-40.028078 0Z"  horiz-adv-x="1024" />

    
    <glyph glyph-name="-smiling-" unicode="&#59124;" d="M511.362 383.998m-491.988 0a491.988 491.988 0 1 1 983.976 0 491.988 491.988 0 1 1-983.976 0ZM616.796-35.354c-271.716 0-491.986 220.268-491.986 491.986 0 145.168 62.886 275.632 162.888 365.684C128.42 740.876 19.382 575.176 19.382 384c0-271.716 220.268-491.986 491.986-491.986 126.548 0 241.924 47.796 329.098 126.298-67.106-34.308-143.128-53.666-223.67-53.666zM582.95 53.65c-109.984 0-199.146 89.162-199.146 199.146h398.292c0.002-109.984-89.16-199.146-199.146-199.146zM491.954 516.276a20.01 20.01 0 0 0-20.014 20.014c0 25.816-21.002 46.822-46.818 46.822s-46.818-21.004-46.818-46.822a20.01 20.01 0 0 0-20.014-20.014 20.01 20.01 0 0 0-20.014 20.014c0 47.888 38.962 86.85 86.848 86.85s86.848-38.962 86.848-86.85c-0.004-11.056-8.962-20.014-20.018-20.014zM830.002 516.276a20.01 20.01 0 0 0-20.014 20.014c0 25.816-21.002 46.822-46.818 46.822s-46.822-21.004-46.822-46.822a20.01 20.01 0 0 0-20.014-20.014 20.01 20.01 0 0 0-20.014 20.014c0 47.888 38.962 86.85 86.85 86.85 47.886 0 86.848-38.962 86.848-86.85-0.002-11.056-8.96-20.014-20.016-20.014zM299.94 414.46c-36.536 0-66.158-29.62-66.158-66.158h132.314c0.002 36.538-29.62 66.158-66.156 66.158zM876.996 423.322c-36.536 0-66.156-29.62-66.156-66.158h132.314c-0.002 36.54-29.622 66.158-66.158 66.158zM432.394 252.796v-31.086c0-13.108 10.626-23.732 23.732-23.732h253.644c13.108 0 23.732 10.626 23.732 23.732v31.086H432.394zM587.13 136.272c-53.832 25.01-113.568 21.376-162.01-4.564 36.4-47.442 93.642-78.058 158.06-78.058a198.412 198.412 0 0 1 79.806 16.684c-17.928 27.744-43.638 50.97-75.856 65.938zM254.226 597.522c0-57.154-46.332-103.486-103.486-103.486s-103.486 46.332-103.486 103.486S150.74 803.726 150.74 803.726s103.486-149.05 103.486-206.204zM511.368 896c-117.676 0-231.146-40.32-322.1-113.994-10.908 16.914-19.288 29.1-22.09 33.138a20.008 20.008 0 0 1-32.876 0c-10.958-15.782-107.062-155.976-107.062-217.622 0-68.1 55.404-123.502 123.502-123.502s123.502 55.404 123.502 123.502c0 36.558-33.8 100.74-63.596 150.22 84.47 69.896 190.588 108.228 300.722 108.228 260.248 0 471.968-211.724 471.968-471.968S771.612-87.968 511.368-87.968c-120.118 0-234.562 45.15-322.252 127.136-87.27 81.588-140.01 191.916-148.502 310.658-0.788 11.024-10.368 19.374-21.392 18.534-11.026-0.788-19.324-10.364-18.534-21.392 9.214-128.838 66.424-248.538 161.088-337.042C256.912-79.018 381.064-128 511.368-128c282.316 0 511.998 229.68 511.998 512C1023.364 666.32 793.684 896 511.368 896zM150.74 514.048c-46.026 0-83.472 37.446-83.472 83.472 0 32.106 46.05 113.102 83.474 170.352a1290.22 1290.22 0 0 0 15.986-25.098c0.528-1.044 1.144-2.054 1.87-3.016 32.76-53.098 65.616-115.092 65.616-142.238-0.002-46.026-37.448-83.472-83.474-83.472zM425.12 623.138c-47.886 0-86.848-38.962-86.848-86.848 0-11.056 8.958-20.014 20.014-20.014s20.014 8.958 20.014 20.014c0 25.816 21.002 46.818 46.818 46.818s46.818-21.002 46.818-46.818c0-11.056 8.958-20.014 20.014-20.014s20.014 8.958 20.014 20.014c0.004 47.886-38.956 86.848-86.844 86.848zM716.348 536.29c0 25.816 21.004 46.818 46.822 46.818s46.818-21.002 46.818-46.818a20.01 20.01 0 0 1 20.014-20.014 20.01 20.01 0 0 1 20.014 20.014c0 47.886-38.962 86.848-86.848 86.848-47.888 0-86.85-38.962-86.85-86.848 0-11.056 8.958-20.014 20.014-20.014s20.016 8.958 20.016 20.014zM363.79 252.8c0-120.846 98.314-219.162 219.16-219.162s219.16 98.314 219.16 219.162a20.01 20.01 0 0 1-20.014 20.014H383.804c-11.056 0-20.014-8.96-20.014-20.014z m397.182-20.016c-9.98-89.388-86.01-159.116-178.022-159.116s-168.04 69.728-178.022 159.116h356.044zM20.65 420.984m-20.014 0a20.014 20.014 0 1 1 40.028 0 20.014 20.014 0 1 1-40.028 0Z"  horiz-adv-x="1024" />

    
    <glyph glyph-name="kaifa" unicode="&#59477;" d="M564.144 502.688c-2.078 0.844-4.491 1.333-7.016 1.333-7.982 0-14.822-4.89-17.688-11.837l-98.091-251.734c-3.994-9.731 1.125-20.756 10.912-24.469 2.020-0.785 4.359-1.239 6.804-1.239 8.105 0 15.042 4.998 17.9 12.079l98.259 251.454c0.788 2.003 1.246 4.323 1.246 6.748 0 8.078-5.068 14.972-12.198 17.677zM430.044 443.4c-3.495 5.608-9.628 9.286-16.621 9.286-3.617 0-7.003-0.983-9.907-2.697l-125.964-74.425c-5.548-3.4-9.193-9.43-9.193-16.313s3.646-12.912 9.111-16.265l126.083-74.41c9-5.287 20.925-2.475 26.438 6.638 1.695 2.773 2.699 6.127 2.699 9.718 0 6.904-3.712 12.94-9.249 16.222l-98.525 58.154 98.437 58.050c9 5.625 12.038 17.212 6.638 25.987zM612.8 450.037c-2.799 1.681-6.178 2.677-9.788 2.677-6.958 0-13.055-3.695-16.433-9.23-1.745-2.869-2.75-6.236-2.75-9.837 0-6.854 3.637-12.858 9.087-16.188l98.521-58.098-98.438-58.106c-5.565-3.329-9.233-9.325-9.233-16.177 0-3.629 1.029-7.018 2.812-9.891 3.38-5.539 9.475-9.233 16.433-9.233 3.61 0 6.989 0.995 9.876 2.724l125.913 74.314c5.548 3.4 9.193 9.43 9.193 16.313s-3.646 12.912-9.111 16.265l-126.083 74.467zM821.262 833.1h-626.175c-41.962 0-76.050-33.75-76.050-75.319v-748.125c0-41.512 34.088-75.319 76.050-75.319h626.175c41.906 0 76.050 33.75 76.050 75.262v748.181c0 41.512-34.144 75.319-76.050 75.319zM834.706 9.6c0-7.313-6.019-13.275-13.444-13.275h-626.175c0 0 0 0-0.001 0-7.354 0-13.324 5.93-13.387 13.268v748.188c0 7.313 5.963 13.275 13.387 13.275h429.75c-0.855-4.158-1.347-8.94-1.353-13.836l0.003-143.158c0-41.456 34.144-75.262 76.106-75.262h121.669c4.613 0 9.056 0.562 13.444 1.406v-530.606zM834.706 614.063c0-7.313-6.019-13.219-13.444-13.219h-121.669c-0.034 0-0.073-0.001-0.113-0.001-7.323 0-13.267 5.904-13.33 13.213v143.725c0 7.313 6.019 13.275 13.444 13.275h121.669c7.425 0 13.444-5.963 13.444-13.275v-143.719z"  horiz-adv-x="1024" />

    
    <glyph glyph-name="bishi" unicode="&#58910;" d="M770.863 67.146c0-22.056-17.944-40-40-40H632.42l-17.553-60h115.996c55.228 0 100 44.772 100 100V209.024l-60-57.149v-84.729z m-594.218 0V505.908l186.276 186.643c11.343 11.365 10.97 29.879-0.821 40.778l-41.29 38.167h410.053c22.056 0 40-17.944 40-40v-252.249l60 57.149v195.1c0 55.228-44.772 100-100 100H255.9l-1.232 1.139-0.272-1.139h-1.875L116.645 518.365v-451.219c0-55.228 44.772-100 100-100h120.853l17.553 60H216.645c-22.056 0-40 17.944-40 40zM713.558 546.471c0 16.568-13.432 30-30 30H310.494c-16.568 0-30-13.432-30-30s13.432-30 30-30h373.064c16.568 0 30 13.432 30 30z m-60.937-129.556c0 16.568-13.432 30-30 30H310.494c-16.568 0-30-13.432-30-30s13.432-30 30-30h312.127c16.569 0 30 13.432 30 30zM310.494 317.36c-16.568 0-30-13.432-30-30s13.432-30 30-30h219.392c16.568 0 30 13.432 30 30s-13.432 30-30 30H310.494z m581.694 82.266l-44.141 43.457c-5.074 4.675-10.775 8.321-17.156 10.992-6.381 2.621-12.866 3.956-19.403 3.956-6.537 0-13.127-1.284-19.666-3.905-6.537-2.62-12.186-6.266-16.998-10.941L495.746 169.691l116.595-116.595 279.794 274.153c10.094 9.915 15.219 21.985 15.219 36.164 0.001 14.176-5.072 26.248-15.166 36.213zM418.551 94.039L376.45-43.986l-6.695-20.649 168.304 44.946 42.174 41.324-116.592 116.593z"  horiz-adv-x="1024" />

    
    <glyph glyph-name="icon-test" unicode="&#58907;" d="M768 192c38.4 0 64-25.6 64-64s-25.6-64-64-64H320c-38.4 0-64 25.6-64 64s25.6 64 64 64h448z m192 256c38.4 0 64-25.6 64-64s-32-64-64-64H320c-38.4 0-64 25.6-64 64s32 64 64 64h640z m-320 256c38.4 0 64-25.6 64-64s-25.6-64-64-64H320c-38.4 0-64 25.6-64 64s25.6 64 64 64h320zM0 768c0 38.4 25.6 64 64 64s64-25.6 64-64v-768c0-38.4-25.6-64-64-64s-64 25.6-64 64V768z"  horiz-adv-x="1024" />

    
    <glyph glyph-name="opensource" unicode="&#59042;" d="M1010.688 436.736c-5.632 9.216-15.36 14.848-26.112 14.848h-158.72v98.816c0 16.896-13.824 30.72-30.72 30.72h-344.064v110.08c0 16.896-13.824 30.72-30.72 30.72h-354.816c-16.896 0-30.72-13.824-30.72-30.72v-646.656c0-1.024 0-1.536 0.512-2.56v-1.024c0-1.024 0.512-2.048 1.024-3.072 0.512-1.024 1.024-2.56 1.536-3.584 0 0 0-0.512 0.512-0.512 0.512-1.024 1.024-1.536 1.536-2.56v-1.024c0.512-1.024 1.024-1.536 2.048-2.56 0 0 0-0.512 0.512-0.512 0.512-1.024 1.536-1.536 2.56-2.56l0.512-0.512c0.512-0.512 1.536-1.024 2.048-1.536 0.512 0 0.512-0.512 1.024-0.512 1.024-0.512 1.536-1.024 2.56-1.536 0 0 0.512 0 0.512-0.512l3.072-1.536h0.512c1.024-0.512 2.048-0.512 3.072-1.024h1.024c1.024 0 1.536-0.512 2.56-0.512h734.208c1.536 0 2.56 0 4.096 0.512h1.024c1.024 0 2.048 0.512 3.072 0.512h0.512c1.024 0.512 2.56 1.024 3.584 1.536h0.512l3.072 1.536c0.512 0 0.512 0.512 1.024 0.512 1.024 0.512 2.048 1.536 3.072 2.048 1.024 1.024 2.048 1.536 2.56 2.56 0 0 0.512 0.512 0.512 1.024 0.512 1.024 1.536 1.536 2.048 2.56l0.512 0.512c0.512 1.024 1.536 2.048 2.048 3.072l189.44 374.784c3.072 8.192 3.072 19.456-2.56 28.672z m-621.056 223.744v-110.08c0-16.896 13.824-30.72 30.72-30.72h344.064v-68.096h-509.44c-11.776 0-22.016-6.656-27.648-16.896l-131.072-259.584v485.376h293.376z m386.56-583.68h-660.992l158.208 313.344h660.992l-158.208-313.344z"  horiz-adv-x="1024" />

    
    <glyph glyph-name="Inserttopic" unicode="&#58919;" d="M227.328 615.424h131.072l-26.624-184.32h-100.352c-22.528 0-40.96-18.432-40.96-40.96s18.432-40.96 40.96-40.96h88.064l-18.432-133.12c-4.096-22.528 12.288-43.008 34.816-47.104h6.144c20.48 0 36.864 14.336 40.96 34.816l20.48 143.36h167.936l-18.432-129.024c-4.096-22.528 12.288-43.008 34.816-47.104h6.144c20.48 0 36.864 14.336 40.96 34.816l20.48 143.36h137.216c22.528 0 40.96 18.432 40.96 40.96s-18.432 40.96-40.96 40.96h-126.976l26.624 184.32h94.208c22.528 0 40.96 18.432 40.96 40.96s-18.432 40.96-40.96 40.96h-81.92l14.336 100.352c4.096 22.528-12.288 43.008-34.816 47.104-22.528 4.096-43.008-12.288-47.104-34.816l-16.384-110.592h-167.936l14.336 100.352c4.096 22.528-12.288 43.008-34.816 47.104-22.528 4.096-43.008-12.288-47.104-34.816L368.64 701.44h-143.36c-22.528 0-40.96-18.432-40.96-40.96s20.48-45.056 43.008-45.056z m382.976 0l-26.624-184.32h-167.936l26.624 184.32h167.936zM948.224 320.512c-22.528 0-40.96-18.432-40.96-40.96v-272.384H116.736V279.552c0 22.528-18.432 40.96-40.96 40.96s-40.96-18.432-40.96-40.96v-313.344c0-22.528 18.432-40.96 40.96-40.96h874.496c22.528 0 40.96 18.432 40.96 40.96V279.552c-2.048 22.528-20.48 40.96-43.008 40.96z"  horiz-adv-x="1024" />

    
    <glyph glyph-name="jiagou" unicode="&#58898;" d="M512 177.345c-58.531 0-105.988-47.456-105.988-105.988 0-58.531 47.456-105.988 105.988-105.988 58.531 0 105.988 47.456 105.988 105.988 0 58.531-47.457 105.988-105.988 105.988z m0-158.985c-29.252 0-52.994 23.742-52.994 52.994s23.742 52.994 52.994 52.994c29.279 0 52.994-23.742 52.994-52.994S541.279 18.36 512 18.36z m344.464 158.985c-58.531 0-105.988-47.456-105.988-105.988 0-58.531 47.456-105.988 105.988-105.988 58.531 0 105.988 47.456 105.988 105.988 0 58.531-47.456 105.988-105.988 105.988z m0-158.985c-29.279 0-52.994 23.742-52.994 52.994s23.742 52.994 52.994 52.994 52.994-23.742 52.994-52.994-23.715-52.994-52.994-52.994zM167.536 177.345c-58.531 0-105.988-47.456-105.988-105.988 0-58.531 47.456-105.988 105.988-105.988s105.988 47.456 105.988 105.988c-0.001 58.531-47.457 105.988-105.988 105.988z m0-158.985c-29.252 0-52.994 23.742-52.994 52.994s23.742 52.994 52.994 52.994c29.279 0 52.994-23.742 52.994-52.994s-23.715-52.994-52.994-52.994z m662.43 450.452h-291.47v78.009c60.465 12.267 105.988 65.738 105.988 129.81 0 73.159-59.327 132.486-132.486 132.486S379.511 749.79 379.511 676.631c0-64.096 45.522-117.543 105.988-129.81v-78.009h-291.47c-29.252 0-52.994-23.742-52.994-52.994v-158.984c0-14.652 11.871-26.498 26.498-26.498s26.498 11.844 26.498 26.498V389.32c0 14.652 11.871 26.498 26.498 26.498H803.47c14.628 0 26.498-11.871 26.498-26.498v-132.486c0-14.652 11.871-26.498 26.498-26.498 14.628 0 26.498 11.844 26.498 26.498V415.818c-0.001 29.255-23.719 52.994-52.998 52.994zM432.508 676.658c0 43.907 35.585 79.492 79.492 79.492 43.907 0 79.492-35.585 79.492-79.492S555.907 597.166 512 597.166c-43.907 0-79.492 35.585-79.492 79.492z"  horiz-adv-x="1024" />

    
    <glyph glyph-name="fenzhi" unicode="&#58912;" d="M814.336 205.056c-15.9232 0-30.976-3.1232-45.3632-7.68l-108.8 165.1712c4.2496 6.2464 7.3216 13.3632 7.3216 21.4528s-3.072 15.2576-7.3216 21.4528l108.8 165.1712c14.4384-4.5568 29.4912-7.68 45.3632-7.68 83.712 0 151.808 68.096 151.808 151.808S898.048 866.6112 814.336 866.6112s-151.8592-68.1472-151.8592-151.8592c0-55.1936 29.9008-103.0656 74.0864-129.6896l-106.9056-162.3552c-0.3584 0-0.6656 0.2048-1.0752 0.2048a38.656 38.656 0 0 1-34.304-21.4016H456.6528c-9.0624 102.0928-94.1056 182.7328-198.5024 182.7328C147.712 584.2432 57.856 494.3872 57.856 384s89.856-200.2432 200.2944-200.2432c104.3968 0 189.44 80.64 198.5024 182.7328h137.6768a38.5536 38.5536 0 0 1 34.304-21.4016c0.3584 0 0.6656 0.2048 1.0752 0.2048l106.9056-162.3552a151.3984 151.3984 0 0 1-74.0864-129.6896c0-83.712 68.1472-151.8592 151.8592-151.8592s151.808 68.1472 151.808 151.8592-68.1472 151.808-151.8592 151.808zM703.488 714.752c0 61.1328 49.7152 110.848 110.848 110.848 61.0816 0 110.7968-49.7152 110.7968-110.848a110.9504 110.9504 0 0 0-110.7968-110.7968A110.9504 110.9504 0 0 0 703.488 714.752z m-445.3376-474.7264c-79.4112 0-144.0256 64.6144-144.0256 143.9744s64.6144 143.9744 144.0256 143.9744c79.36 0 143.9744-64.6144 143.9744-143.9744s-64.6144-143.9744-143.9744-143.9744z m556.1856-297.6256a110.9504 110.9504 0 0 0-110.848 110.848c0 61.0816 49.7152 110.7968 110.848 110.7968 61.0816 0 110.7968-49.7152 110.7968-110.7968 0-61.1328-49.664-110.848-110.7968-110.848z"  horiz-adv-x="1024" />

    
    <glyph glyph-name="dengji" unicode="&#59033;" d="M41.721937 682.766385h738.609597c21.011788 0 38.207931 17.337028 38.20793 38.526729-0.001806 21.189701-17.194337 38.526729-38.20793 38.526729H41.721937c-21.012691 0-38.205221-17.337028-38.205222-38.526729 0-21.189701 17.19253-38.526729 38.205222-38.526729z m0-231.158568h611.265481c21.012691 0 38.203415 17.337028 38.203415 38.526729 0 21.189701-17.190724 38.526729-38.203415 38.526729H41.721937c-21.012691 0-38.205221-17.337028-38.205222-38.526729 0-21.190604 17.19253-38.526729 38.205222-38.526729zM525.637884 297.504513H41.721937c-21.012691 0-38.205221-17.337028-38.205222-38.526729s17.193433-38.526729 38.205222-38.526729H525.637884c21.012691 0 38.205221 17.337028 38.205222 38.526729s-17.19253 38.526729-38.205222 38.526729z m-101.877279-231.160375H41.721937c-21.012691 0-38.205221-17.337028-38.205222-38.526729 0-21.187895 17.193433-38.526729 38.205222-38.526729h382.038668c21.011788 0 38.202512 17.337028 38.202512 38.526729 0 21.189701-17.190724 38.526729-38.202512 38.526729z m567.087081 609.542345c-30.323769 17.956562-69.342694 7.723408-87.147533-22.856844l-19.345548-33.221854 109.815628-65.02853 19.342838 33.222756c17.805743 30.579349 7.661093 69.92791-22.665385 87.884472zM639.322441 198.99313l109.813821-65.027628 232.137541 398.66585-109.814724 65.026725-232.136638-398.664947z m-48.268591-209.699741l145.184176 122.521501-109.813821 65.027628-35.370355-187.549129z"  horiz-adv-x="1024" />

    
    <glyph glyph-name="Management" unicode="&#59014;" d="M884.062 740.325h-668.832c-13.115 0-23.606-10.646-23.606-23.606 0-13.114 10.646-23.606 23.606-23.606h668.832c13.114 0 23.606 10.646 23.606 23.606 0 13.114-10.646 23.606-23.606 23.606zM945.622 883.503c-10.491 8.177-22.988 12.497-36.102 12.497h-719.748c-13.114 0-25.611-4.32-35.948-12.343-9.566-7.406-16.972-17.434-21.292-29.469l-132.532-266.761v-5.554c0-128.058 95.503-232.356 212.761-232.356 68.040 0 129.91 34.869 169.561 92.726 39.652-57.857 101.52-92.726 169.561-92.726 66.343 0 127.44 33.634 167.247 89.486 39.96-55.852 100.903-89.486 167.246-89.486 117.258 0 212.762 104.143 212.762 232.356v5.554l-132.533 266.761c-4.165 11.88-11.417 22.063-20.983 29.315zM886.531 396.883c-61.098 0-117.104 37.492-145.955 97.972-0.463 0.926-1.235 1.543-1.852 2.468-0.926 1.39-1.697 2.623-2.931 3.858-1.235 1.234-2.623 2.005-4.012 2.931-0.925 0.617-1.388 1.389-2.314 1.852-0.309 0.154-0.772 0.154-1.080 0.308-1.543 0.617-3.24 0.926-4.937 1.234-1.389 0.309-2.623 0.618-4.012 0.618-1.388 0-2.777-0.309-4.32-0.618-1.697-0.308-3.24-0.617-4.783-1.234-0.462-0.154-0.771-0.154-1.234-0.308-0.926-0.463-1.543-1.235-2.314-1.852-1.389-0.926-2.777-1.851-4.012-2.931-1.080-1.080-2.005-2.469-2.931-3.858-0.617-0.925-1.389-1.542-1.852-2.468-28.851-60.48-84.857-97.972-145.955-97.972-62.949 0-119.726 39.189-147.96 102.292-0.463 1.080-1.389 1.697-2.006 2.777-0.926 1.543-1.697 2.932-3.086 4.32-1.234 1.234-2.623 2.006-4.011 2.932-0.926 0.617-1.698 1.542-2.932 2.005-0.154 0.155-0.463 0-0.617 0.155-1.543 0.617-3.394 0.771-5.091 1.080-1.389 0.154-2.623 0.617-4.012 0.617s-2.623-0.463-4.011-0.617c-1.697-0.309-3.395-0.463-5.092-1.080-0.154-0.155-0.463 0-0.617-0.155-1.080-0.463-1.851-1.388-2.931-2.005-1.389-0.926-2.932-1.698-4.012-2.932-1.234-1.234-2.16-2.777-3.086-4.32-0.617-0.926-1.542-1.697-2.005-2.777-28.235-63.103-85.012-102.292-147.961-102.292-89.64 0-162.772 80.075-165.395 179.59l128.058 258.12 1.234 2.932c0.926 2.623 2.468 6.172 5.863 8.64 2.16 1.698 4.628 2.623 7.097 2.623h719.746c2.623 0 4.937-0.771 7.251-2.623 3.24-2.468 4.937-5.862 5.709-8.485l129.446-261.207c-2.314-99.515-75.6-179.59-165.086-179.59zM966.451 284.253c-13.114 0-23.606-10.645-23.606-23.605v-323.385c0-4.937-1.851-9.566-5.091-12.96-3.24-3.24-7.252-5.091-11.572-5.091h-753.227c-4.32 0-8.331 1.697-11.417 4.937-3.24 3.394-5.091 8.023-5.091 12.96v323.539c0 13.114-10.646 23.606-23.606 23.606-13.115 0-23.606-10.646-23.606-23.606v-323.385c0-17.28 6.634-33.634 18.36-45.823 12.034-12.497 28.234-19.44 45.515-19.44h753.227c17.125 0 33.325 6.943 45.514 19.44 11.88 12.343 18.36 28.543 18.36 45.823v323.385c-0.154 13.114-10.646 23.606-23.76 23.606z"  horiz-adv-x="1100" />

    
    <glyph glyph-name="iclose" unicode="&#58941;" d="M711.86901899 182.48794099999998a46.545031 46.545031 0 0 0-65.81467399 0l-133.840238 133.933328-133.421332-133.351515a46.545031 46.545031 0 0 0-65.837947 0 45.358133 45.358133 0 0 0 1.02399 64.813956l133.048973 133.77042-133.002428 133.11879a46.545031 46.545031 0 0 0 0 65.814675 45.311588 45.311588 0 0 0 64.790684-1.023991L512.004655 447.026627l133.165334 133.910055a46.545031 46.545031 0 1 0 65.814675-65.814674l-133.421333-133.328242 134.235871-133.491151a46.545031 46.545031 0 0 0 0.06981699-65.814674zM512.004655 896a508.15538 508.15538 0 0 0 293.233697-93.299515 46.405396 46.405396 0 0 0 34.210598-44.683231l0.418906-4.305415a46.405396 46.405396 0 0 0-80.592722-31.55753101 420.627449 420.627449 0 1 1 132.653339-160.16145299l7.540295 7.540295a46.545031 46.545031 0 0 0-29.020827 43.077426l-0.418905 4.328688a46.428669 46.428669 0 0 0 91.088627 12.776611A511.995345 511.995345 0 1 0 512.004655 896z"  horiz-adv-x="1024" />

    
    <glyph glyph-name="icon-vote" unicode="&#58889;" d="M462.08 846.08l286.848-162.3424-199.5136-324.7104-299.328 174.8224zM387.2768 359.0272L424.704 334.08000000000004H287.5136l24.9472 24.9728h74.8288zM711.552 334.08000000000004h-74.8288l12.4672 24.9728h37.4144zM449.6384 896L212.672 508.8768 499.5328 334.08000000000004h74.8288l212.0192 349.632z m87.3088-524.4928L287.5136 533.8496 474.5856 821.0688l249.4336-149.8496zM25.6 271.6032V-128h972.8V271.6032H25.6z m922.88-362.1376H75.52v312.192h872.96v-312.192zM798.848 433.92h-112.2432l-24.9472-37.4656h112.2432l124.7232-112.2944H100.4288l124.7232 112.3968h99.776l-49.92 37.4656h-74.8032L25.6 271.6032h972.8zM150.3232 171.712h49.92l43.8016-149.1456 43.52 149.1456h49.92l-62.4512-212.3008h-62.3616z m192-102.976c0 34.4192 3.7504 58.88 20.0064 78.0032s45.8112 24.9728 74.8288 24.9728c29.7472 0 50.1248-3.2256 66.2144-22.0672a118.2336 118.2336 0 0 0 24.1536-79.2448 149.76 149.76 0 0 0-10.5472-60.6208 83.712 83.712 0 0 0-30.4768-36.8256 88.32 88.32 0 0 0-49.6768-13.1584 99.4816 99.4816 0 0 0-50.048 11.3664 82.304 82.304 0 0 0-32.128 35.9552 136.96 136.96 0 0 0-12.3136 61.6192z m55.232-0.2944a80.32 80.32 0 0 1 10.0608-45.888 34.2144 34.2144 0 0 1 54.9248-0.2816 89.0496 89.0496 0 0 1 9.7536 49.0496 73.7408 73.7408 0 0 1-10.24 43.52 32.5632 32.5632 0 0 1-27.6096 13.7344 31.5648 31.5648 0 0 1-26.88-13.952 80.5632 80.5632 0 0 1-9.9968-46.1824z m139.3792 103.2704H711.552v-49.92l-61.7472 0.4864-0.6144-162.8672h-49.92V121.7536h-62.3232v49.92z m199.552 0h137.1904v-49.92h-87.296v-24.9728h87.296v-37.4656h-87.296v-49.92h99.776v-49.92H736.4864V171.712z"  horiz-adv-x="1024" />

    
    <glyph glyph-name="import" unicode="&#58903;" d="M1053.257143 768H585.142857L468.114286 896H117.028571C52.662857 896 0.585143 838.363429 0.585143 768L0 0C0-70.363429 52.662857-128 117.028571-128h936.228572c64.365714 0 117.028571 57.636571 117.028571 128V640c0 70.436571-52.662857 128-117.028571 128zM585.142857 74.82514300000003L302.445714 387.730286h179.931429v177.737143h205.531428v-177.737143h179.931429L585.142857 74.82514300000003z"  horiz-adv-x="1170" />

    
    <glyph glyph-name="yanqi" unicode="&#58965;" d="M510.6-65.8c-248.1 0-450 201.9-450 450s201.9 450 450 450c118.3 0 230.1-45.6 314.6-128.3 7.5-7.4 7.7-19.4 0.3-27-7.4-7.5-19.4-7.7-27-0.3C721.1 754.2 619 796.1 510.6 796.1c-227 0-411.7-184.7-411.7-411.7s184.7-411.7 411.7-411.7 411.7 184.7 411.7 411.7c0 10.6 8.5 19.1 19.1 19.1 10.6 0 19.1-8.5 19.1-19.1 0.1-248.3-201.8-450.2-449.9-450.2zM816.7 660.3c-0.7 0-1.3 0-2 0.2l-109.3 11c-10.5 1-18.1 10.5-17.2 20.9 1 10.5 10.5 18.1 20.9 17.2l88.4-8.8v77.3c0 10.6 8.5 19.1 19.1 19.1 10.6 0 19.1-8.5 19.1-19.1v-98.4c0.2-10.8-8.3-19.4-19-19.4zM707.4 358.7H510.6c-14.1 0-25.5 11.4-25.5 25.5V631.3c0 14.1 11.4 25.5 25.5 25.5s25.5-11.4 25.5-25.5v-221.8h171.3c14.1 0 25.5-11.4 25.5-25.5 0-13.9-11.4-25.3-25.5-25.3z"  horiz-adv-x="1024" />

    
    <glyph glyph-name="shenpi1" unicode="&#58887;" d="M448-32H198.4c-83.2 0-147.2 64-147.2 147.2V704C51.2 787.2 115.2 851.2 198.4 851.2h460.8c83.2 0 147.2-64 147.2-147.2v-204.8c0-19.2-12.8-32-32-32s-32 12.8-32 32V704c0 44.8-38.4 83.2-83.2 83.2H198.4c-44.8 0-83.2-38.4-83.2-83.2v-588.8c0-44.8 38.4-83.2 83.2-83.2H448c19.2 0 32-12.8 32-32s-12.8-32-32-32zM467.2 217.6H262.4c-12.8 0-25.6 12.8-25.6 25.6V256c0 12.8 12.8 25.6 25.6 25.6h198.4c12.8 0 25.6-12.8 25.6-25.6v-6.4c6.4-19.2-6.4-32-19.2-32zM595.2 409.6H262.4c-12.8 0-25.6 12.8-25.6 25.6v6.4c0 12.8 12.8 25.6 25.6 25.6h326.4c12.8 0 25.6-12.8 25.6-25.6v-6.4c6.4-12.8-6.4-25.6-19.2-25.6zM595.2 601.6H262.4c-12.8 0-25.6 12.8-25.6 25.6v6.4c0 12.8 12.8 25.6 25.6 25.6h326.4c12.8 0 25.6-12.8 25.6-25.6v-6.4c6.4-12.8-6.4-25.6-19.2-25.6zM940.8 102.4h-38.4L812.8 256c25.6 19.2 38.4 44.8 38.4 76.8 0 51.2-44.8 96-96 96s-96-44.8-96-96c0-32 12.8-57.6 38.4-76.8l-89.6-153.6h-51.2c-19.2 0-32-12.8-32-32v-121.6c0-19.2 12.8-32 32-32h384c19.2 0 32 12.8 32 32v121.6c0 19.2-12.8 32-32 32z m-185.6 262.4c19.2 0 32-12.8 32-32 0-12.8-12.8-25.6-25.6-32h-12.8c-12.8 6.4-25.6 12.8-25.6 32s12.8 32 32 32z m0-134.4l57.6-96h-115.2l57.6 96z m153.6-249.6h-320v57.6h320v-57.6z"  horiz-adv-x="1024" />

    
    <glyph glyph-name="jinrong" unicode="&#58931;" d="M155.3 129.2c-22.5 0-40.8-18.3-40.8-40.8 0-22.5 18.2-40.8 40.8-40.8h713.2c22.5 0 40.7 18.3 40.7 40.8 0 22.5-18.2 40.8-40.7 40.8h-10.2V496.1h10.2c11.2 0 20.4 9.2 20.4 20.4s-9.1 20.3-20.4 20.3H155.3c-11.2 0-20.3-9.1-20.3-20.3 0-11.2 9.1-20.4 20.3-20.4h10.2v-366.8h-10.2v-0.1z m499.3 366.9h122.3v-366.8H654.6V496.1z m-203.8 0H573v-366.8H450.8V496.1z m-203.8 0h122.3v-366.8H247V496.1z m-142.6 71.3h815.2c22.5 0 40.8 18.3 40.8 40.8 0 17.9-11.5 33.1-27.6 38.6l-404.2 182c-10.6 4.8-22.8 4.8-33.4 0L87.7 645.3c-17.5-7.9-27.2-26.9-23.1-45.7 4-18.8 20.6-32.2 39.8-32.2z m815.1-550.2h-815c-22.5 0-40.8-18.3-40.8-40.8 0-22.5 18.2-40.7 40.8-40.7h815c22.5 0 40.8 18.3 40.8 40.7-0.1 22.5-18.3 40.8-40.8 40.8z"  horiz-adv-x="1024" />

    
    <glyph glyph-name="touchan" unicode="&#59576;" d="M844.8 435.2h-51.2c-5.12 35.84-20.48 71.68-40.96 102.4l35.84 35.84c10.24 10.24 10.24 25.6 0 35.84l-46.08 46.08c-10.24 10.24-25.6 10.24-35.84 0l-35.84-35.84C640 640 604.16 655.36 568.32 665.6v51.2c0 15.36-10.24 25.6-25.6 25.6h-66.56c-15.36 0-25.6-10.24-25.6-20.48v-51.2c-35.84-5.12-71.68-20.48-102.4-40.96l-35.84 35.84c-10.24 10.24-25.6 10.24-35.84 0l-46.08-46.08c-10.24-10.24-10.24-25.6 0-35.84l35.84-35.84c-20.48-30.72-35.84-66.56-46.08-102.4h-51.2c-15.36 0-25.6-10.24-25.6-20.48v-66.56c0-15.36 10.24-25.6 20.48-25.6h51.2c5.12-35.84 20.48-71.68 40.96-102.4l-35.84-35.84c-10.24-10.24-10.24-25.6 0-35.84l46.08-46.08c10.24-10.24 25.6-10.24 35.84 0l35.84 35.84c20.48-15.36 40.96-25.6 61.44-30.72V204.8c-15.36 10.24-30.72 20.48-46.08 35.84-81.92 81.92-76.8 215.04 5.12 291.84 81.92 81.92 209.92 76.8 291.84-5.12 81.92-81.92 76.8-215.04-5.12-291.84-15.36-15.36-30.72-25.6-46.08-35.84v-87.04c20.48 5.12 40.96 15.36 61.44 30.72l35.84-35.84c10.24-10.24 25.6-10.24 35.84 0l46.08 46.08c10.24 10.24 10.24 25.6 0 35.84l-35.84 35.84c20.48 30.72 35.84 66.56 46.08 102.4h51.2c15.36 0 25.6 10.24 25.6 20.48v66.56c5.12 10.24-5.12 20.48-20.48 20.48zM655.36 384c0 56.32-30.72 102.4-76.8 122.88-5.12 0-5.12 0-5.12-5.12v-81.92c0-25.6-20.48-46.08-46.08-46.08h-35.84c-25.6 0-46.08 20.48-46.08 46.08v81.92c0 5.12-5.12 5.12-5.12 5.12-40.96-25.6-66.56-71.68-66.56-117.76 0-40.96 20.48-81.92 46.08-107.52 15.36-15.36 25.6-35.84 25.6-61.44v-174.08c0-10.24 10.24-20.48 20.48-20.48h20.48V230.4c0 10.24 5.12 15.36 15.36 20.48 10.24 0 20.48-5.12 20.48-15.36v-204.8h20.48c10.24 0 20.48 10.24 20.48 20.48V215.04c0 25.6 10.24 46.08 30.72 61.44 40.96 20.48 61.44 61.44 61.44 107.52z"  horiz-adv-x="1024" />

    
    <glyph glyph-name="chengbengusuan" unicode="&#58996;" d="M381.984 186.592v228.704h94.464v-36.192a272.032 272.032 0 0 0 64.672 41.312V804.672c0 18.656-15.072 33.696-33.696 33.696H33.76c-18.656 0-33.696-15.04-33.696-33.696v-688.064c0-18.656 15.072-33.728 33.696-33.728h363.168a270.912 270.912 0 0 0-14.944 103.712z m94.464 287.584h-94.464V568.64h94.464v-94.464zM64.736 768.544h411.712v-122.016H64.736V768.544z m94.464-600.928H64.736V262.08h94.464v-94.464z m0 153.344H64.736v94.4h94.464v-94.4z m0 153.216H64.736V568.64h94.464v-94.464z m158.528-306.56h-94.4V262.08h94.4v-94.464z m0 153.344h-94.4v94.4h94.4v-94.4z m0 153.216h-94.4V568.64h94.4v-94.464zM653.696 415.968a242.88 242.88 0 0 1-243.072-248.192c0.576-29.984 6.528-58.56 17.12-84.864a243.264 243.264 0 0 1 225.952-153.248 243.168 243.168 0 0 1 0 486.304z m75.744-245.248v-25.696h-62.464v-35.296h62.464v-25.92h-62.464v-51.424h-32.256V83.84h-64.832v25.92h64.832v35.296h-64.832v25.696h55.328l-67.424 115.872h36.224c31.552-57.568 50.656-94.112 57.504-109.504h0.64c2.336 6.304 8.672 19.072 18.912 38.4l38.56 71.104h34.336l-68.16-115.872h53.632v-0.032zM817.536 402.208h117.888v80.224h-117.888v-80.224z m21.568 270.144a185.472 185.472 0 0 1 0-370.88 185.44 185.44 0 1 1 0 370.88z m-78.592-305.216H745.92v164.64a542.4 542.4 0 0 0-30.816-49.536 128.32 128.32 0 0 1-7.392 15.456 462.592 462.592 0 0 1 62.528 129.984l14.304-4.064c-7.04-21.696-15.008-42.432-24.032-62.272v-194.208z m123.424 189.696v-60.48h66.336v-129.024h-14.88v21.376h-117.888v-21.376h-14.88v129.024h66.272v60.48h-85.504v14.24h85.504V627.36h15.008v-56.288h86.56v-14.24h-86.528z"  horiz-adv-x="1024" />

    
    <glyph glyph-name="icon-toolbar-supply-aioms" unicode="&#58904;" d="M793.952 115.03999999999996c-5.888 17.632-16.16 30.848-26.464 38.24a257.056 257.056 0 0 1-48.48 26.464 355.936 355.936 0 0 1-55.872 17.632 1164.192 1164.192 0 0 0-52.928 17.632c-17.632 7.36-32.32 16.16-42.624 24.992-10.272 10.272-17.664 19.104-22.048 29.376s-5.856 20.544-7.296 30.848c-1.472 10.272 0 19.104 1.44 29.408 1.472 8.8 2.944 14.688 5.856 20.544s5.888 10.272 10.272 14.72c2.944 4.416 7.392 8.8 13.28 11.744 4.384 2.944 10.272 7.36 16.16 13.248 5.888 4.416 10.272 11.776 14.72 19.104 4.416 8.8 8.8 16.16 11.776 24.992l8.8 30.848c7.36 1.472 13.248 4.416 19.104 10.272 5.888 4.416 10.304 10.272 14.688 19.104 4.416 7.36 7.36 19.104 8.8 32.32 1.472 10.272 1.472 19.104 0 26.464s-2.944 13.248-5.856 17.632c-1.472 5.888-5.888 8.8-10.304 11.744 1.472 26.464 0 51.456-4.416 77.888-4.384 22.048-8.8 45.568-17.632 70.528s-20.576 48.512-36.768 69.088c-7.328 8.8-16.16 17.632-27.904 26.464s-24.992 16.16-39.712 23.52c-14.688 7.36-30.848 13.248-48.48 17.632s-35.264 7.36-54.368 7.36a250.88 250.88 0 0 1-45.568-4.416c-16.16-1.472-30.848-7.36-47.04-13.248s-32.32-14.688-47.008-26.432a163.424 163.424 0 0 1-41.152-42.624c-13.216-19.104-22.048-39.68-29.376-63.2s-11.776-45.568-14.688-66.144c-4.416-23.52-4.416-48.48-4.416-73.504-5.856-5.856-8.8-13.216-11.776-20.576s-4.384-14.688-5.888-23.52c-1.472-8.832 0-17.632 2.944-29.408 2.944-10.272 7.36-19.104 11.776-24.992 5.888-5.888 8.8-10.272 13.216-13.216 4.416-4.416 8.832-5.888 13.248-7.36 4.416-11.744 7.36-20.576 10.272-30.848 2.944-8.8 5.888-17.632 10.272-24.96 2.944-8.832 8.832-14.688 13.248-19.104 10.272-8.8 20.576-17.632 29.408-26.464s13.248-20.576 14.688-36.736c1.472-10.272 1.472-19.104 1.472-27.904s-1.472-17.664-4.416-24.992c-2.944-7.36-8.8-16.16-16.16-23.52-8.832-8.8-19.104-16.192-32.352-24.96a214.4 214.4 0 0 0-58.784-24.992c-23.52-5.888-45.568-11.776-66.144-19.104-22.048-7.36-39.68-17.632-55.84-29.376-16.16-11.776-24.992-30.848-29.408-54.4C22.336 56.224000000000046 20.896 22.399999999999977 23.84-4.032000000000039c2.944-27.904 8.8-42.624 16.16-48.48 5.888-4.416 23.52-10.272 51.456-16.16s60.256-11.776 96.992-17.632c38.208-5.856 74.944-10.272 114.656-14.72 39.68-2.912 73.504-5.856 101.408-5.856 17.632 0 41.152 1.472 66.144 2.944s51.456 4.384 79.328 7.328c26.464 4.416 54.4 7.36 82.336 11.776s52.896 8.8 74.944 13.248c22.048 4.384 39.712 8.8 55.872 14.688 14.72 5.888 24.992 10.272 27.936 14.688 4.416 7.328 7.36 17.632 10.272 30.848 1.472 14.688 2.944 29.408 2.944 44.096s-1.472 30.848-2.944 45.536a209.408 209.408 0 0 1-7.424 36.768z m-321.376-121.472l-17.664-17.664c-7.36-5.856-13.216-10.272-20.576-14.688-5.888-4.416-11.776-5.888-14.688-5.888s-8.8 2.944-10.272 7.36c-7.36 4.416-13.248 8.8-20.576 14.688s-13.216 11.776-17.632 17.632c-4.416 5.888-7.36 10.272-7.36 13.248 0 4.416 0 13.248 2.944 23.52 1.472 10.304 4.416 22.048 7.36 33.792 2.944 13.28 5.856 23.52 8.8 35.296 2.944 10.272 5.888 19.072 7.36 24.96a104.192 104.192 0 0 0-17.632 19.136c-4.416 7.36-7.36 11.776-7.36 16.192 0 5.888 1.472 11.776 4.416 16.16s5.888 8.768 10.272 13.248c4.416 4.384 10.304 8.8 16.16 13.248h48.512c5.888-4.416 10.272-8.832 16.16-13.248 4.416-4.416 8.8-8.8 11.776-14.688 4.416-5.888 5.888-10.272 5.888-16.16s-2.944-13.28-7.36-19.136c-4.416-7.296-10.272-11.744-16.16-17.632 2.944-7.36 4.416-16.192 7.36-27.936 1.472-11.776 4.416-23.52 7.36-35.296 2.944-11.744 5.888-22.016 7.36-32.32s2.944-16.16 2.944-20.576c0-2.944-2.944-7.36-7.36-13.248z m515.84 344.384a393.184 393.184 0 0 0-32.352 24.96c-11.776 8.8-23.52 19.104-36.736 29.408s-24.96 19.072-36.736 29.376c-11.744 10.272-22.048 17.632-30.848 24.992-7.328 5.888-14.688 8.8-20.576 5.888s-8.768-8.8-8.768-19.104v-41.12c0-7.36-4.416-13.248-10.304-14.688-7.328-2.944-14.72-2.944-26.432-2.944h-141.12c-13.248 0-22.048-1.472-27.936-5.856s-8.8-13.248-8.8-24.992c0-8.8-1.472-17.632 2.912-24.96v-22.048c0-7.296 1.472-11.776 2.976-16.16a24.16 24.16 0 0 1 8.8-8.768c4.416-2.944 7.36-4.416 11.776-4.416 4.384-1.472 7.328-1.472 11.744-1.472h152.864c7.328 0 13.216-1.472 17.632-2.944s5.888-5.888 5.888-13.248v-45.6c-1.472-10.272 2.912-17.632 8.768-19.104 5.888-2.944 14.72 0 24.992 8.8 10.272 7.36 20.576 16.16 32.352 24.992 11.776 8.8 24.992 17.632 36.768 27.904s23.488 19.136 35.296 27.904c10.272 8.832 20.576 16.192 29.408 23.52 7.328 5.888 11.744 13.216 11.744 19.104 0 7.36-4.416 13.248-13.248 20.608z"  horiz-adv-x="1024" />

    
    <glyph glyph-name="tishi" unicode="&#59390;" d="M478.208 149.504c-15.36 0-28.672-5.632-39.424-16.384-10.752-10.752-16.384-24.064-16.384-38.912 0-14.336 5.12-27.136 15.872-37.888 10.752-10.752 24.576-16.384 41.472-16.384 14.336 0 27.136 5.632 37.888 16.384 10.752 10.752 16.384 23.552 16.384 38.4 0 14.848-5.632 28.16-16.384 38.912-10.752 10.24-24.064 15.872-39.424 15.872zM486.4 636.416c-45.056 0-89.088-13.312-130.56-38.912l-4.096-2.56v-102.4l15.872 16.384c31.232 32.768 68.096 49.664 109.568 49.664 23.04 0 41.984-6.144 56.832-17.92 14.336-11.776 21.504-27.648 21.504-47.616 0-11.776-3.072-24.064-9.216-37.376-6.656-13.312-24.576-34.304-54.272-61.952-30.72-29.696-49.664-52.736-57.344-70.656-7.68-17.408-11.776-34.816-11.776-52.224 0-21.504 3.072-41.472 9.216-60.416l2.048-6.144H522.24l-5.632 12.8c-7.68 17.92-11.776 35.328-11.776 51.2 0 13.824 4.096 26.624 11.776 38.912 8.192 12.8 25.088 31.232 49.664 54.272 34.304 32.768 55.808 59.392 64.512 79.872 8.192 20.48 12.8 40.448 12.8 60.416 0 41.472-14.848 74.752-43.52 99.328-29.184 23.04-67.072 35.328-113.664 35.328zM513.024 894.976c-281.6 0-510.976-228.864-510.976-510.464s228.864-510.976 510.976-510.976c281.6 0 510.976 228.864 510.976 510.976 0 281.6-229.376 510.464-510.976 510.464z m436.736-510.464c0-236.544-206.848-436.224-452.096-436.224-231.936 0-420.864 195.584-420.864 436.224s188.928 436.224 420.864 436.224c245.248 0 452.096-199.68 452.096-436.224z"  horiz-adv-x="1024" />

    
    <glyph glyph-name="chazhao" unicode="&#58933;" d="M1100.848979-127.58851700000002a28.291987 28.291987 0 0 0-19.816674 8.188708l-96.954304 94.170143a227.318538 227.318538 0 0 0-293.688018 17.974215 212.66075 212.66075 0 0 0 0 306.544289 227.523256 227.523256 0 0 0 314.937715 0 212.333202 212.333202 0 0 0 18.547424-285.663084l96.954305-94.170143a26.449527 26.449527 0 0 0 8.188708-19.366295 27.022737 27.022737 0 0 0-8.188708-19.366295 27.391229 27.391229 0 0 0-19.980448-8.311538z m-253.072025 435.188894a167.868517 167.868517 0 0 1-117.753623-47.330733 158.738107 158.738107 0 0 1 0-228.792506 170.120412 170.120412 0 0 1 235.67102 0 158.738107 158.738107 0 0 1 0 228.792506 168.114178 168.114178 0 0 1-117.917397 47.41262z m266.788111 526.083554H31.854075a31.117091 31.117091 0 1 0 0 62.234182h1082.71099a31.117091 31.117091 0 1 0 0-62.152295z m0-315.265263H31.854075a31.158034 31.158034 0 1 0 0 62.275125h1082.71099a31.158034 31.158034 0 1 0 0-62.193238z m-650.347201-315.265264H31.854075a31.117091 31.117091 0 1 0 0 62.234182h432.363789a31.117091 31.117091 0 1 0 0-62.152295z m0-315.265263H31.854075a31.117091 31.117091 0 1 0 0 62.234182h432.363789a31.117091 31.117091 0 1 0 0-62.152295z"  horiz-adv-x="1147" />

    
    <glyph glyph-name="renwu" unicode="&#58927;" d="M521.813333 436.48h-9.706666a166.613333 166.613333 0 0 1-114.88-46.506667 196.053333 196.053333 0 0 1-59.946667-142.613333c0-6.293333 0-12.586667 0.853333-18.666667a33.066667 33.066667 0 0 1 32-32h284.16a32.533333 32.533333 0 0 1 32 30.613334 208.96 208.96 0 0 1 0 34.666666c-6.613333 94.613333-77.44 169.386667-164.48 174.506667zM512 208.213333l-40.426667 69.866667 30.4 113.173333L490.666667 415.146667l21.333333 17.813333 21.333333-17.813333-11.413333-23.786667 30.4-113.173333zM512 538.773333m-80.64 0a80.64 80.64 0 1 1 161.28 0 80.64 80.64 0 1 1-161.28 0ZM512 896a512 512 0 1 1 512-512A512 512 0 0 1 512 896z m195.093333-670.08a53.333333 53.333333 0 0 0-52.8-49.92H369.706667a54.293333 54.293333 0 0 0-53.333334 51.093333c-0.64 6.72-0.96 13.76-0.96 20.586667A217.493333 217.493333 0 0 0 382.506667 405.333333a191.146667 191.146667 0 0 0 78.293333 44.906667 101.973333 101.973333 0 1 0 102.293333 0c78.613333-22.826667 138.026667-96.746667 144.426667-186.56a231.36 231.36 0 0 0-0.426667-37.76z"  horiz-adv-x="1024" />

    
    <glyph glyph-name="quanxian" unicode="&#58981;" d="M996.181333 103.005867l-30.839466-7.697067a155.7504 155.7504 0 0 0-7.816534-18.6368l16.580267-27.579733c7.5008-11.9552 10.2656-28.893867-0.520533-39.697067l-17.8176-17.8176c-5.051733-5.0432-12.1856-7.850667-20.130134-7.850667a36.864 36.864 0 0 0-20.565333 6.357334l-26.692267 16.989866c-6.382933-3.2-12.970667-5.9648-19.729066-8.260266l-6.826667-30.941867c-2.440533-13.4912-1.979733-10.5984-17.024-19.072l-25.6-8.533333c-17.109333 0-37.6576 13.960533-40.840533 27.793066l-7.611734 30.344534a151.808 151.808 0 0 0-21.6832 9.122133l-27.477333-17.518933a36.8384 36.8384 0 0 0-20.488533-6.263467c-7.927467 0-15.069867 2.807467-20.138667 7.850667l-17.809067 17.800533c-10.752 10.786133-8.004267 27.741867-0.452266 39.7568l17.408 29.073067a153.6256 153.6256 0 0 0-7.048534 17.083733l-30.9248 7.714133c-13.7728 3.165867-27.7248 13.201067-27.7248 28.416v25.198934c0 15.556267 14.097067 27.409067 27.7504 29.8752l30.2848 6.7072c1.962667 5.905067 4.48 12.040533 7.662934 18.619733l-17.442134 29.090133c-6.980267 11.101867-11.0336 28.219733 0.4864 39.739734l17.809067 17.757866c5.051733 5.060267 12.2112 7.850667 20.138667 7.850667 7.2704 0 14.7712-2.304 20.599466-6.357333l27.298134-17.365334a156.9792 156.9792 0 0 0 21.5296 9.0624l7.671466 30.472534C781.329067 335.889067 802.0736 349.866667 819.2 349.866667h17.066667c17.493333 0 22.929067-14.148267 25.378133-27.793067l6.818133-30.6944c6.7328-2.2784 13.422933-5.102933 19.968-8.413867l26.734934 17.0496a36.693333 36.693333 0 0 0 20.471466 6.263467c8.072533 0 15.0272-2.7136 20.130134-7.850667l17.8176-17.757866c11.528533-11.554133 7.458133-28.663467 0.477866-39.816534l-16.503466-27.4432c3.421867-6.8608 6.1696-13.499733 8.379733-20.189866l30.472533-6.749867c13.457067-2.423467 27.588267-14.276267 27.588267-29.832533v-25.198934c0-15.214933-13.960533-25.250133-27.818667-28.433066z m0.955734 53.632a10.9056 10.9056 0 0 1-5.666134 3.421866l-0.7424 0.1536-43.861333 9.710934a3.370667 3.370667 0 0 0-2.4832 2.286933l-3.456 11.136a126.830933 126.830933 0 0 1-8.1152 19.498667l-5.085867 9.949866a3.345067 3.345067 0 0 0 0.110934 3.2512l23.236266 38.690134c1.527467 2.2784 2.5088 4.872533 2.858667 7.594666l-17.1008 17.117867c0.034133-0.0768 0-0.0768-0.136533-0.0768l-1.041067 0.042667c-1.877333-0.0256-3.712-0.554667-5.316267-1.527467a8.814933 8.814933 0 0 0-0.7424-0.512l-38.135466-24.302933a3.498667 3.498667 0 0 0-3.345067-0.162134l-10.282667 5.358934a130.773333 130.773333 0 0 1-19.447466 8.174933l-10.990934 3.515733a3.3536 3.3536 0 0 0-2.218666 2.4832l-9.7792 43.9296a11.2128 11.2128 0 0 1-0.187734 0.930134c-0.4864 2.7904-2.9184 5.4016-3.754666 5.7088l-23.876267-0.042667a17.066667 17.066667 0 0 1-3.217067-6.920533l-10.9312-43.648a3.310933 3.310933 0 0 0-2.244266-2.389334l-10.658134-3.421866c-7.159467-2.269867-14.1056-5.188267-20.744533-8.704l-10.3424-5.444267a3.421867 3.421867 0 0 0-3.362133 0.145067c-0.5376 0.349867-39.671467 25.258667-39.688534 25.301333a10.436267 10.436267 0 0 1-5.290666 1.527467 4.855467 4.855467 0 0 1-1.442134-0.187734l-16.827733-16.896c0.059733-1.237333 0.674133-4.113067 2.619733-7.202133l24.302934-40.482133a3.328 3.328 0 0 0 0.128-3.217067l-4.9152-9.890133a131.328 131.328 0 0 1-7.509334-18.244267l-3.4816-11.0848a3.328 3.328 0 0 0-2.466133-2.286933l-43.665067-9.6768-0.878933-0.170667c-2.807467-0.520533-5.444267-2.935467-5.725867-3.797333l0.059734-23.842134c0.913067-0.8448 3.362133-2.440533 6.912-3.259733l43.972266-10.9568a3.370667 3.370667 0 0 0 2.372267-2.218667l3.438933-10.5984c1.834667-5.614933 4.113067-11.127467 6.971734-16.904533l4.9408-9.847467a3.3024 3.3024 0 0 0-0.119467-3.217066l-24.0896-40.132267a17.877333 17.877333 0 0 1-2.8416-7.611733l17.1264-17.1008c-0.042667 0.034133 0 0.059733 0 0.059733 0.273067 0 0.725333-0.059733 1.117867-0.059733 1.877333 0.034133 3.712 0.571733 5.307733 1.570133 0.017067 0.034133 39.739733 25.344 39.739733 25.344a3.336533 3.336533 0 0 0 3.370667 0.1536l10.333867-5.444267a126.890667 126.890667 0 0 1 20.8128-8.7808l10.7264-3.4048a3.2768 3.2768 0 0 0 2.244266-2.389333l10.8032-43.1104c0.520533-2.696533 1.664-5.230933 3.328-7.424h24.226134c1.6896 1.501867 2.884267 3.473067 3.4048 5.666133l9.941333 44.9792a3.413333 3.413333 0 0 0 2.244267 2.466134l10.990933 3.549866a126.327467 126.327467 0 0 1 19.165867 8.0384l10.3168 5.367467a3.4816 3.4816 0 0 0 3.345066-0.1536l38.9376-24.8576c1.595733-0.989867 3.421867-1.536 5.2992-1.570133a4.078933 4.078933 0 0 1 1.4336 0.2048l16.878934 16.878933a16.64 16.64 0 0 1-2.653867 7.236267l-23.458133 39.108266a3.2768 3.2768 0 0 0-0.128 3.2512l5.077333 9.924267c3.089067 6.058667 5.649067 12.1856 7.637333 18.2272l3.456 10.581333a3.387733 3.387733 0 0 0 2.3552 2.244267l43.537067 10.837333c2.679467 0.546133 5.1968 1.6896 7.364267 3.3536v24.200534zM819.3536 61.115733v0.017067c-46.378667 0-84.1216 37.674667-84.1216 83.968a84.164267 84.164267 0 0 0 168.285867 0c-0.1024-46.404267-37.751467-83.976533-84.164267-83.985067z m0.187733 141.149867c-31.7184 0-57.5744-25.7536-57.5744-57.386667a57.5744 57.5744 0 0 1 115.114667 0c0 31.633067-25.796267 57.386667-57.540267 57.386667z m72.192 371.908267H686.114133a21.265067 21.265067 0 0 0-20.343466 21.213866 21.265067 21.265067 0 0 0 20.343466 21.2224H891.733333a21.248 21.248 0 0 0 21.265067-21.2224 21.248 21.248 0 0 0-21.265067-21.213866z m0-134.4H686.114133a21.256533 21.256533 0 0 0-20.625066 21.230933 21.256533 21.256533 0 0 0 20.625066 21.2224H891.733333a21.248 21.248 0 0 0 21.2736-21.2224 21.248 21.248 0 0 0-21.2736-21.230933zM599.466667 276.241067a21.1968 21.1968 0 0 0-4.266667-29.713067 21.2992 21.2992 0 0 0-29.781333 4.266667A225.800533 225.800533 0 0 1 397.3888 341.333333h-21.973333c-121.728-4.1984-219.511467-104.029867-219.511467-226.474666a21.230933 21.230933 0 0 0-21.265067-21.213867v-0.0256a21.248 21.248 0 0 0-21.2736 21.2224c0 115.857067 73.7024 214.852267 176.768 252.791467v0.2048c-52.974933 31.726933-88.610133 89.437867-88.610133 155.4432 0 100.010667 81.5616 181.376 181.8112 181.376 100.266667 0 181.853867-81.365333 181.853867-181.376 0-65.450667-35.063467-122.752-87.3216-154.6496v-1.322667c47.709867-17.706667 89.8304-48.8192 121.6-91.067733z m-76.8768 247.04c-0.093867 76.706133-62.404267 138.88-139.298134 138.965333l0.042667-0.017067c-76.8 0.042667-139.298133-62.318933-139.298133-138.948266 0.093867-76.689067 62.3872-138.8288 139.255466-138.9056 76.791467 0 139.298133 62.3104 139.298134 138.9056z m476.672-104.6784a21.248 21.248 0 0 0-21.265067 21.213866V685.184c-0.068267 64.6912-52.616533 117.111467-117.461333 117.179733h-700.586667c-64.836267-0.068267-117.384533-52.497067-117.435733-117.179733v-572.0832c0.068267-64.682667 52.608-117.0944 117.435733-117.162667h422.510933c7.6032 0 14.626133-4.0448 18.423467-10.606933 3.797333-6.570667 3.797333-14.660267 0-21.2224a21.282133 21.282133 0 0 0-18.423467-10.606933H159.9488C71.7568-46.498133 0 25.088 0 113.1008V685.201067C0 773.213867 71.7568 844.8 159.9744 844.8h700.578133c88.200533 0 159.9744-71.586133 159.9744-159.598933v-245.384534a21.239467 21.239467 0 0 0-21.265066-21.213866z"  horiz-adv-x="1024" />

    
    <glyph glyph-name="normal" unicode="&#59059;" d="M161.344 768l-33.28-128h767.872l-33.28 128H161.28z m798.464-123.776A55.04 55.04 0 0 0 960 640v-640c0-35.2-33.6-64-74.688-64H138.688C97.6-64 64-35.200000000000045 64 0V640c0 1.28 0 2.56 0.128 3.84a64 64 0 0 0 1.92 12.288l33.408 128A64 64 0 0 0 161.28 832H862.72a64 64 0 0 0 61.888-47.872l33.344-128c1.024-3.968 1.664-7.936 1.92-11.904zM525.568 545.7280000000001L256 276.22400000000005l207.808-1.792-0.256-204.16 125.504 1.472 4.608 199.936 203.392 2.56-271.488 271.488z"  horiz-adv-x="1024" />

    
    <glyph glyph-name="gaoguan" unicode="&#58900;" d="M508.475733 235.008c17.339733 0 31.709867-13.994667 31.709867-31.3856 0-17.3824-14.148267-31.377067-31.709867-31.377067a31.428267 31.428267 0 0 0-31.470933 31.377067 31.428267 31.428267 0 0 0 31.470933 31.3856z m0-301.4144s-79.598933 29.576533-79.598933 72.251733c0 30.0288 30.1056 97.988267 53.1456 145.851734 7.978667-3.84 16.878933-6.0928 26.231467-6.0928a58.965333 58.965333 0 0 1 26.222933 6.0928c23.2704-47.872 53.1456-115.822933 53.1456-145.851734 0.4608-42.666667-79.146667-72.251733-79.146667-72.251733z m365.6192 0.452267c-20.3008 0-36.949333 16.477867-36.949333 36.573866 0 102.280533-47.214933 196.437333-129.322667 258.747734a36.411733 36.411733 0 0 0-6.843733 51.473066 37.034667 37.034667 0 0 0 51.780267 6.775467c100.5824-76.0832 158.293333-191.684267 158.293333-316.996267 0-20.317867-16.426667-36.573867-36.949333-36.573866zM508.16 840.533333c-149.162667 0-270.865067-121.668267-270.865067-271.0784 0-91.426133 47.0016-176.477867 122.154667-226.286933-150.075733-60.4928-252.023467-208.768-252.023467-372.736 0-20.241067 16.580267-36.8384 36.778667-36.8384 20.215467 0 36.7872 16.597333 36.7872 36.8384 0 180.565333 146.670933 327.714133 327.168 327.714133 149.393067 0 270.865067 121.668267 270.865067 271.3088C779.025067 718.865067 657.553067 840.533333 508.16 840.533333z m0-468.7104c-108.7488 0-197.0688 88.695467-197.0688 197.4016 0 108.936533 88.541867 197.4016 197.0688 197.4016 108.757333 0 197.077333-88.695467 197.077333-197.4016 0.221867-108.706133-88.32-197.4016-197.077333-197.4016z"  horiz-adv-x="1024" />

    
    </font>
</defs>
</svg>
